<?xml version="1.0" encoding="UTF-8" standalone="no"?>
<!-- Created with Inkscape (http://www.inkscape.org/) -->

<svg
   xmlns:dc="http://purl.org/dc/elements/1.1/"
   xmlns:cc="http://creativecommons.org/ns#"
   xmlns:rdf="http://www.w3.org/1999/02/22-rdf-syntax-ns#"
   xmlns:svg="http://www.w3.org/2000/svg"
   xmlns="http://www.w3.org/2000/svg"
   xmlns:sodipodi="http://sodipodi.sourceforge.net/DTD/sodipodi-0.dtd"
   xmlns:inkscape="http://www.inkscape.org/namespaces/inkscape"
   width="374.2168mm"
   height="374.2168mm"
   viewBox="0 0 1325.965 1325.965"
   id="svg4317"
   version="1.1"
   inkscape:version="0.91 r13725"
   sodipodi:docname="ISU.svg">
  <defs
     id="defs4319">
    <inkscape:path-effect
       effect="bend_path"
       id="path-effect4879"
       is_visible="true"
       bendpath="M -1620.5537,45.949688 C -1091.9697,-813.35181 -120.72236,-397.10548 -4.0996859,144.19852"
       prop_scale="1"
       scale_y_rel="false"
       vertical="false"
       bendpath-nodetypes="cc" />
  </defs>
  <sodipodi:namedview
     id="base"
     pagecolor="#ffffff"
     bordercolor="#666666"
     borderopacity="1.0"
     inkscape:pageopacity="0.0"
     inkscape:pageshadow="2"
     inkscape:zoom="0.12374369"
     inkscape:cx="-115.24905"
     inkscape:cy="805.53679"
     inkscape:document-units="px"
     inkscape:current-layer="layer1"
     showgrid="false"
     inkscape:window-width="1366"
     inkscape:window-height="705"
     inkscape:window-x="-8"
     inkscape:window-y="-8"
     inkscape:window-maximized="1"
     fit-margin-top="5"
     fit-margin-left="5"
     fit-margin-right="5"
     fit-margin-bottom="5" />
  <metadata
     id="metadata4322">
    <rdf:RDF>
      <cc:Work
         rdf:about="">
        <dc:format>image/svg+xml</dc:format>
        <dc:type
           rdf:resource="http://purl.org/dc/dcmitype/StillImage" />
        <dc:title></dc:title>
      </cc:Work>
    </rdf:RDF>
  </metadata>
  <g
     inkscape:label="Layer 1"
     inkscape:groupmode="layer"
     id="layer1"
     transform="translate(-446.79466,-277.95105)">
    <g
       id="g4666"
       transform="matrix(0,1,-1,0,2057.1916,-210.32442)" />
    <g
       id="g4881">
      <circle
         transform="matrix(0.99678599,0.08011047,-0.08011047,0.99678599,0,0)"
         style="fill:#614a0b;fill-opacity:1;stroke:none;stroke-width:27.61166954;stroke-miterlimit:4;stroke-dasharray:none;stroke-dashoffset:0;stroke-opacity:1"
         id="circle4730"
         cx="1181.589"
         cy="849.00464"
         r="645.26599" />
      <circle
         transform="matrix(0.96200425,0.27303447,-0.27303447,0.96200425,0,0)"
         r="457.14285"
         cy="602.17468"
         cx="1324.5176"
         id="path4682"
         style="fill:#1c39bb;fill-opacity:1;stroke:#ffffff;stroke-width:20;stroke-miterlimit:4;stroke-dasharray:none;stroke-dashoffset:0;stroke-opacity:1" />
      <path
         transform="matrix(1.1569843,0.010926,-0.010926,1.1569843,-187.93888,-139.81489)"
         d="m 1229.6103,1022.6868 -45.7219,-6.5342 -17.2021,42.8635 -36.3292,-28.5198 -36.3293,28.5198 -17.2021,-42.8635 -45.7219,6.5342 6.5342,-45.72184 -42.86341,-17.20215 28.51971,-36.32921 -28.51971,-36.32922 42.86341,-17.20215 -6.5342,-45.72189 45.7219,6.53421 17.2021,-42.86342 36.3293,28.51973 36.3292,-28.51973 17.2021,42.86342 45.7219,-6.53421 -6.5342,45.72188 42.8634,17.20216 -28.5197,36.32921 28.5197,36.32922 -42.8634,17.20214 z"
         inkscape:randomized="0"
         inkscape:rounded="0"
         inkscape:flatsided="false"
         sodipodi:arg2="1.0471975"
         sodipodi:arg1="0.78539816"
         sodipodi:r2="107.06273"
         sodipodi:r1="140.3653"
         sodipodi:cy="923.43359"
         sodipodi:cx="1130.3571"
         sodipodi:sides="12"
         id="path4369"
         style="fill:#614a0b;fill-opacity:1;stroke:#000000;stroke-width:1.38512003;stroke-miterlimit:4;stroke-dasharray:none;stroke-dashoffset:0;stroke-opacity:1"
         sodipodi:type="star" />
      <g
         transform="matrix(0.96200425,0.27303448,-0.27303448,0.96200425,299.07412,-267.25593)"
         id="g4696">
        <path
           style="fill:#614a0b;fill-opacity:1;fill-rule:evenodd;stroke:#000000;stroke-width:1px;stroke-linecap:butt;stroke-linejoin:miter;stroke-opacity:1"
           d="m 1055.7143,529.50504 -21.4286,130 77.1429,92.85714 67.1428,-91.42857 -17.1428,-131.42857 -54.2857,-25.71429 z"
           id="path4692"
           inkscape:connector-curvature="0" />
        <path
           inkscape:connector-curvature="0"
           id="path4694"
           d="m 1055.7143,1355.2183 -21.4286,-130 77.1429,-92.8571 67.1428,91.4286 -17.1428,131.4285 -54.2857,25.7143 z"
           style="fill:#614a0b;fill-opacity:1;fill-rule:evenodd;stroke:#000000;stroke-width:1px;stroke-linecap:butt;stroke-linejoin:miter;stroke-opacity:1" />
      </g>
      <g
         transform="matrix(-0.27303448,0.96200425,-0.96200425,-0.27303448,2314.8096,134.30436)"
         id="g4700">
        <path
           inkscape:connector-curvature="0"
           id="path4702"
           d="m 1055.7143,529.50504 -21.4286,130 77.1429,92.85714 67.1428,-91.42857 -17.1428,-131.42857 -54.2857,-25.71429 z"
           style="fill:#614a0b;fill-opacity:1;fill-rule:evenodd;stroke:#000000;stroke-width:1px;stroke-linecap:butt;stroke-linejoin:miter;stroke-opacity:1" />
        <path
           style="fill:#614a0b;fill-opacity:1;fill-rule:evenodd;stroke:#000000;stroke-width:1px;stroke-linecap:butt;stroke-linejoin:miter;stroke-opacity:1"
           d="m 1055.7143,1355.2183 -21.4286,-130 77.1429,-92.8571 67.1428,91.4286 -17.1428,131.4285 -54.2857,25.7143 z"
           id="path4704"
           inkscape:connector-curvature="0" />
      </g>
      <g
         transform="matrix(0.69660288,0.71745691,-0.71745691,0.69660288,1011.5273,-508.87157)"
         id="g4706">
        <path
           inkscape:connector-curvature="0"
           id="path4708"
           d="m 1055.7143,529.50504 -21.4286,130 77.1429,92.85714 67.1428,-91.42857 -17.1428,-131.42857 -54.2857,-25.71429 z"
           style="fill:#614a0b;fill-opacity:1;fill-rule:evenodd;stroke:#000000;stroke-width:1px;stroke-linecap:butt;stroke-linejoin:miter;stroke-opacity:1" />
        <path
           style="fill:#614a0b;fill-opacity:1;fill-rule:evenodd;stroke:#000000;stroke-width:1px;stroke-linecap:butt;stroke-linejoin:miter;stroke-opacity:1"
           d="m 1055.7143,1355.2183 -21.4286,-130 77.1429,-92.8571 67.1428,91.4286 -17.1428,131.4285 -54.2857,25.7143 z"
           id="path4710"
           inkscape:connector-curvature="0" />
      </g>
      <g
         id="g4712"
         transform="matrix(-0.71745691,0.69660288,-0.69660288,-0.71745691,2556.4252,846.75754)">
        <path
           style="fill:#614a0b;fill-opacity:1;fill-rule:evenodd;stroke:#000000;stroke-width:1px;stroke-linecap:butt;stroke-linejoin:miter;stroke-opacity:1"
           d="m 1055.7143,529.50504 -21.4286,130 77.1429,92.85714 67.1428,-91.42857 -17.1428,-131.42857 -54.2857,-25.71429 z"
           id="path4714"
           inkscape:connector-curvature="0" />
        <path
           inkscape:connector-curvature="0"
           id="path4716"
           d="m 1055.7143,1355.2183 -21.4286,-130 77.1429,-92.8571 67.1428,91.4286 -17.1428,131.4285 -54.2857,25.7143 z"
           style="fill:#614a0b;fill-opacity:1;fill-rule:evenodd;stroke:#000000;stroke-width:1px;stroke-linecap:butt;stroke-linejoin:miter;stroke-opacity:1" />
      </g>
      <g
         id="g4718"
         transform="matrix(0.24454734,0.96963736,-0.96963736,0.24454734,1749.5304,-361.12605)">
        <path
           style="fill:#614a0b;fill-opacity:1;fill-rule:evenodd;stroke:#000000;stroke-width:1px;stroke-linecap:butt;stroke-linejoin:miter;stroke-opacity:1"
           d="m 1055.7143,529.50504 -21.4286,130 77.1429,92.85714 67.1428,-91.42857 -17.1428,-131.42857 -54.2857,-25.71429 z"
           id="path4720"
           inkscape:connector-curvature="0" />
        <path
           inkscape:connector-curvature="0"
           id="path4722"
           d="m 1055.7143,1355.2183 -21.4286,-130 77.1429,-92.8571 67.1428,91.4286 -17.1428,131.4285 -54.2857,25.7143 z"
           style="fill:#614a0b;fill-opacity:1;fill-rule:evenodd;stroke:#000000;stroke-width:1px;stroke-linecap:butt;stroke-linejoin:miter;stroke-opacity:1" />
      </g>
      <g
         transform="matrix(-0.96963736,0.24454734,-0.24454734,-0.96963736,2409.6367,1585.3322)"
         id="g4724">
        <path
           inkscape:connector-curvature="0"
           id="path4726"
           d="m 1055.7143,529.50504 -21.4286,130 77.1429,92.85714 67.1428,-91.42857 -17.1428,-131.42857 -54.2857,-25.71429 z"
           style="fill:#614a0b;fill-opacity:1;fill-rule:evenodd;stroke:#000000;stroke-width:1px;stroke-linecap:butt;stroke-linejoin:miter;stroke-opacity:1" />
        <path
           style="fill:#614a0b;fill-opacity:1;fill-rule:evenodd;stroke:#000000;stroke-width:1px;stroke-linecap:butt;stroke-linejoin:miter;stroke-opacity:1"
           d="m 1055.7143,1355.2183 -21.4286,-130 77.1429,-92.8571 67.1428,91.4286 -17.1428,131.4285 -54.2857,25.7143 z"
           id="path4728"
           inkscape:connector-curvature="0" />
      </g>
      <g
         transform="matrix(0.96200425,0.27303448,-0.27303448,0.96200425,271.22624,-256.96849)"
         id="g4684">
        <g
           id="g4662"
           style="stroke:#ffffff;stroke-width:30;stroke-miterlimit:4;stroke-dasharray:none;stroke-opacity:1">
          <path
             sodipodi:nodetypes="ccccccccccccccccc"
             style="fill:none;fill-rule:evenodd;stroke:#ffffff;stroke-width:30;stroke-linecap:butt;stroke-linejoin:miter;stroke-miterlimit:4;stroke-dasharray:none;stroke-opacity:1"
             d="m 1543.2303,980.44727 30.7143,-57.01366 -30.7143,-57.01367 -310.515,-41.94359 -41.9436,-310.51505 -57.0137,-30.71429 -57.0137,30.71429 -41.9435,310.51505 -310.51508,41.94359 -30.71429,57.01367 30.71429,57.01366 310.51508,41.94363 41.9435,310.515 57.0137,30.7143 57.0137,-30.7143 41.9436,-310.515 z"
             id="path4378"
             inkscape:connector-curvature="0" />
        </g>
        <g
           id="g4672"
           transform="matrix(0.8660254,0.5,-0.5,0.8660254,613.61156,-443.16237)"
           style="stroke:#ffffff;stroke-width:30;stroke-miterlimit:4;stroke-dasharray:none;stroke-opacity:1">
          <path
             inkscape:connector-curvature="0"
             id="path4674"
             d="m 1543.2303,980.44727 30.7143,-57.01366 -30.7143,-57.01367 -310.515,-41.94359 -41.9436,-310.51505 -57.0137,-30.71429 -57.0137,30.71429 -41.9435,310.51505 -310.51508,41.94359 -30.71429,57.01367 30.71429,57.01366 310.51508,41.94363 41.9435,310.515 57.0137,30.7143 57.0137,-30.7143 41.9436,-310.515 z"
             style="fill:none;fill-rule:evenodd;stroke:#ffffff;stroke-width:30;stroke-linecap:butt;stroke-linejoin:miter;stroke-miterlimit:4;stroke-dasharray:none;stroke-opacity:1"
             sodipodi:nodetypes="ccccccccccccccccc" />
        </g>
        <g
           transform="matrix(0.5,0.8660254,-0.8660254,0.5,1366.5959,-520.14645)"
           id="g4676"
           style="stroke:#ffffff;stroke-width:30;stroke-miterlimit:4;stroke-dasharray:none;stroke-opacity:1">
          <path
             sodipodi:nodetypes="ccccccccccccccccc"
             style="fill:none;fill-rule:evenodd;stroke:#ffffff;stroke-width:30;stroke-linecap:butt;stroke-linejoin:miter;stroke-miterlimit:4;stroke-dasharray:none;stroke-opacity:1"
             d="m 1543.2303,980.44727 30.7143,-57.01366 -30.7143,-57.01367 -310.515,-41.94359 -41.9436,-310.51505 -57.0137,-30.71429 -57.0137,30.71429 -41.9435,310.51505 -310.51508,41.94359 -30.71429,57.01367 30.71429,57.01366 310.51508,41.94363 41.9435,310.515 57.0137,30.7143 57.0137,-30.7143 41.9436,-310.515 z"
             id="path4678"
             inkscape:connector-curvature="0" />
        </g>
      </g>
      <g
         transform="translate(0.78137429,0)"
         id="g4762">
        <path
           style="fill:#ffffff;fill-rule:evenodd;stroke:#000000;stroke-width:1px;stroke-linecap:butt;stroke-linejoin:miter;stroke-opacity:1"
           d="m 1250.3752,1464.8041 c 32.0066,19.8936 51.8818,28.9257 79.9498,25.1197 27.5596,-3.7373 57.3416,-24.2212 65.2597,-51.9863 2.0922,-7.3362 2.8178,-13.9274 2.4922,-19.8359 l 0.6817,-9.6856 c 2.4353,-87.094 43.0466,-93.1218 67.1484,-88.0859 14.9184,4.0729 20.9736,9.5802 23.1016,14.6328 15.0744,35.7925 -46.347,34.9179 -23.0371,-1.0899 -15.4847,-7.758 -51.3417,9.8159 -32.3399,36.2989 -37.4875,3.4222 -36.4337,56.9767 -6.5937,55.4453 10.0321,-0.6087 20.4068,-7.5069 14.0586,-16.8809 -13.0412,17.758 -28.7667,-16.8238 -1.2872,-14.5136 35.4479,2.98 59.418,-2.3881 72.0039,-17.4161 9.7661,-12.4546 21.3558,-51.0283 -10.1914,-71.0234 4.0425,1.1143 7.9524,2.198 11.6797,3.1797 20.6496,5.4387 36.9823,8.0819 54.7578,-0.4941 25.0489,-12.0854 47.0272,-40.7844 45.961,-69.6368 -0.3223,-8.7217 -1.9608,-15.8416 -4.3614,-21.9609 -1.7616,-6.6429 -4.1845,-13.4609 -6.8925,-19.1289 -41.6549,-65.1455 -14.0878,-92.2107 7.3515,-102.0762 14.4137,-5.6028 22.5569,-4.7811 27.2735,-1.9863 33.412,19.7984 -16.4747,55.6418 -19.1641,12.832 -17.0614,2.9779 -35.424,38.4367 -4.3945,48.416 -28.0938,25.0553 4.6153,67.4717 27.6875,48.4864 7.701,-6.4582 11.9376,-18.1765 1.2578,-21.9336 0.084,22.0321 -33.1307,3.5948 -9.6699,-10.8985 30.2637,-18.696 46.3355,-37.2709 47.5097,-56.8379 0.3453,-12.444 -8.0175,-38.5487 -29.7304,-47.8125 l 0.1035,0 c 2.6807,-2.0475 5.3036,-3.9982 7.8594,-5.873 25.9965,-19.0695 45.2014,-30.2724 51.0214,-55.3965 6.2765,-27.09444 -2.3183,-62.20365 -25.4726,-79.45116 -0.5074,-0.37795 -1.0112,-0.73869 -1.5156,-1.09571 l 0.031,-0.043 c -0.067,-0.0253 -0.1305,-0.0509 -0.1973,-0.0762 -7.7614,-5.46151 -15.7394,-6.65236 -22.1113,-9.64257 -58.4142,-27.41226 -50.3402,-63.55783 -38.9981,-82.52735 8.7244,-12.76841 15.9064,-16.69271 21.377,-17.05273 38.7535,-2.55042 17.8551,55.21301 -8.5586,21.41601 -12.3922,12.09934 -7.5002,51.73019 23.7383,42.42578 -9.016,36.5478 41.9422,53.05371 50.2461,24.35157 2.7031,-9.6802 -0.4255,-21.74109 -11.3594,-18.80469 12.5215,18.12821 -25.2999,21.69057 -14.1367,-3.52539 14.4002,-32.52798 17.1603,-56.93626 7.0703,-73.74219 -6.0081,-9.31377 -23.8303,-23.6614 -44.0039,-23.42969 l 0,6e-5 c -12.1042,0.13903 -25.0554,5.52779 -36.8086,20.40039 -17.9014,22.6526 -17.1161,58.79125 -4.041,83.33789 7.7901,14.62474 19.4595,22.26047 34.7558,28.95704 -17.5535,6.21095 -29.5862,23.01708 -32.7617,32.89257 -5.3965,18.84474 3.5857,41.70574 25.9141,69.39847 17.3092,21.4675 -20.1451,27.8177 -12.7422,7.0664 -11.3214,-0.01 -11.2219,12.4527 -6.1055,21.1035 15.4496,25.5749 60.3985,-3.5564 42.2305,-36.5254 32.5822,0.9023 27.0507,-38.64525 11.9492,-47.125 -16.7663,39.4817 -51.9017,-10.90406 -13.8086,-18.4707 5.3774,-1.06816 13.3307,0.86221 25.0625,10.9375 17.0175,16.50502 33.3119,50.4163 -27.8105,99.3613 -1.5661,1.2541 -11.7351,5.7028 -21.2071,7.8946 -4.5019,1.0418 -9.5855,1.2128 -14.9453,2.8789 -27.5708,8.5704 -47.3471,38.8287 -50.4336,66.4687 -2.7553,24.6741 10.4803,41.3051 27.6914,66.2676 -15.8038,-9.6135 -36.27,-8.4503 -45.9023,-4.7578 -18.0681,7.602 -30.256,28.9281 -37.8477,63.6816 -5.885,26.9412 -34.3013,1.7272 -13.4902,-5.5058 -7.086,-8.8296 -16.7373,-0.9412 -20.2734,8.4668 -10.2514,28.0655 40.617,44.8424 54.9277,10.0254 19.7123,25.9583 47.0684,-3.1322 44.2149,-20.2149 -41.2759,11.6718 -24.0234,-47.2828 5.7421,-22.3359 4.2019,3.5215 7.681,10.9285 7.1797,26.3847 -2.0857,22.3748 -16.4571,52.9409 -59.9297,45.4825 -43.4725,-7.4583 -59.844,-4.5817 -75.9921,-1.3438 0,9e-4 -0.01,0 -0.012,0 -16.6603,3.8387 -32.4773,12.9553 -43.3516,24.6641 -17.608,18.9591 -16.0672,41.2602 -17.3203,73.6504 -11.5341,-16.7728 -33.8247,-22.9437 -44.9727,-22.3711 -19.5338,1.6351 -37.7236,18.1418 -55.7011,48.8379 -13.9363,23.7958 -33.153,-8.9772 -11.125,-9.4122 -4.0045,-10.5895 -15.6216,-6.0776 -21.8965,1.7735 -18.4362,23.5132 24.7387,55.2156 49.125,26.539 10.7078,30.7857 45.7258,11.5918 48.3008,-5.5351 -42.8615,-1.6795 -8.2055,-52.397 12.375,-19.4609 2.9053,4.6493 3.9196,12.7708 -1.3418,27.3125 -9.7626,22.6042 -38.079,52.3348 -110.6836,4.1699 -30.9434,-9.8247 -37.0359,20.4356 -27.4071,31.8599 6.9388,8.2329 19.8028,1.5151 22.3112,-1.2591 -10.7662,-4.3669 -8.6025,-15.6384 0.525,-14.1561 z"
           id="path4732"
           inkscape:connector-curvature="0"
           sodipodi:nodetypes="csscccsccccsccssscccsccccsccccsscccscsccccscscssccsccccscssssccsccccccsccsccscccccccscc" />
        <path
           sodipodi:nodetypes="csscccsccccsccssscccsccccsccccsscccscsccccscscssccsccccscssssccsccccccsccsccscccccccscc"
           inkscape:connector-curvature="0"
           id="path4760"
           d="m 967.61653,1464.8041 c -32.0067,19.8936 -51.8819,28.9257 -79.9498,25.1197 -27.5597,-3.7373 -57.3417,-24.2212 -65.2598,-51.9863 -2.0921,-7.3362 -2.8178,-13.9274 -2.4922,-19.8359 l -0.6816,-9.6856 c -2.4354,-87.094 -43.0466,-93.1218 -67.1484,-88.0859 -14.9184,4.0729 -20.9737,9.5802 -23.1016,14.6328 -15.0744,35.7925 46.347,34.9179 23.0371,-1.0899 15.4846,-7.758 51.3416,9.8159 32.3398,36.2989 37.4876,3.4222 36.4337,56.9767 6.5938,55.4453 -10.0321,-0.6087 -20.4068,-7.5069 -14.0586,-16.8809 13.0411,17.758 28.7667,-16.8238 1.2871,-14.5136 -35.4479,2.98 -59.4179,-2.3881 -72.0039,-17.4161 -9.766,-12.4546 -21.3557,-51.0283 10.1914,-71.0234 -4.0425,1.1143 -7.9524,2.198 -11.6797,3.1797 -20.6496,5.4387 -36.9822,8.0819 -54.7578,-0.4941 -25.0489,-12.0854 -47.0272,-40.7844 -45.9609,-69.6368 0.3223,-8.7217 1.9608,-15.8416 4.3614,-21.9609 1.7615,-6.6429 4.1844,-13.4609 6.8925,-19.1289 41.6548,-65.1455 14.0877,-92.2107 -7.3516,-102.0762 -14.4137,-5.6028 -22.5569,-4.7811 -27.2734,-1.9863 -33.412,19.7984 16.4746,55.6418 19.164,12.832 17.0615,2.9779 35.424,38.4367 4.3946,48.416 28.0937,25.0553 -4.6154,67.4717 -27.6875,48.4864 -7.701,-6.4582 -11.9376,-18.1765 -1.2578,-21.9336 -0.084,22.0321 33.1306,3.5948 9.6699,-10.8985 -30.2637,-18.696 -46.3355,-37.2709 -47.5098,-56.8379 -0.3452,-12.444 8.0175,-38.5487 29.7305,-47.8125 l -0.1035,0 c -2.6808,-2.0475 -5.3037,-3.9982 -7.8594,-5.873 -25.9965,-19.0695 -45.2014,-30.2724 -51.0215,-55.3965 -6.2765,-27.09444 2.3183,-62.20365 25.4727,-79.45116 0.5074,-0.37795 1.0111,-0.73869 1.5156,-1.09571 l -0.031,-0.043 c 0.067,-0.0253 0.1305,-0.0509 0.1973,-0.0762 7.7613,-5.46151 15.7393,-6.65236 22.1113,-9.64257 58.4142,-27.41226 50.3402,-63.55783 38.998,-82.52735 -8.7243,-12.76841 -15.9063,-16.69271 -21.3769,-17.05273 -38.7535,-2.55042 -17.8551,55.21301 8.5586,21.41601 12.3921,12.09934 7.5001,51.73019 -23.7383,42.42578 9.0159,36.5478 -41.9422,53.05371 -50.2461,24.35157 -2.7032,-9.6802 0.4254,-21.74109 11.3594,-18.80469 -12.5215,18.12821 25.2999,21.69057 14.1367,-3.52539 -14.4003,-32.52798 -17.1604,-56.93626 -7.0703,-73.74219 6.0081,-9.31377 23.8302,-23.6614 44.0039,-23.42969 l 0,6e-5 c 12.1042,0.13903 25.0554,5.52779 36.8085,20.40039 17.9014,22.6526 17.1162,58.79125 4.0411,83.33789 -7.7901,14.62474 -19.4595,22.26047 -34.7559,28.95704 17.5536,6.21095 29.5863,23.01708 32.7617,32.89257 5.3966,18.84474 -3.5856,41.70574 -25.914,69.39847 -17.3092,21.4675 20.1451,27.8177 12.7421,7.0664 11.3214,-0.01 11.222,12.4527 6.1055,21.1035 -15.4496,25.5749 -60.3984,-3.5564 -42.2305,-36.5254 -32.5821,0.9023 -27.0506,-38.64525 -11.9492,-47.125 16.7664,39.4817 51.9017,-10.90406 13.8086,-18.4707 -5.3773,-1.06816 -13.3307,0.86221 -25.0625,10.9375 -17.0174,16.50502 -33.3119,50.4163 27.8106,99.3613 1.566,1.2541 11.735,5.7028 21.207,7.8946 4.502,1.0418 9.5855,1.2128 14.9453,2.8789 27.5708,8.5704 47.3471,38.8287 50.4336,66.4687 2.7553,24.6741 -10.4802,41.3051 -27.6914,66.2676 15.8039,-9.6135 36.27,-8.4503 45.9023,-4.7578 18.0681,7.602 30.256,28.9281 37.8477,63.6816 5.8851,26.9412 34.3014,1.7272 13.4902,-5.5058 7.086,-8.8296 16.7373,-0.9412 20.2735,8.4668 10.2514,28.0655 -40.617,44.8424 -54.9278,10.0254 -19.7123,25.9583 -47.0684,-3.1322 -44.2148,-20.2149 41.2758,11.6718 24.0234,-47.2828 -5.7422,-22.3359 -4.2019,3.5215 -7.6809,10.9285 -7.1797,26.3847 2.0858,22.3748 16.4571,52.9409 59.9297,45.4825 43.4726,-7.4583 59.8441,-4.5817 75.9922,-1.3438 0,9e-4 0.01,0 0.012,0 16.6602,3.8387 32.4773,12.9553 43.3516,24.6641 17.6079,18.9591 16.0672,41.2602 17.3203,73.6504 11.5341,-16.7728 33.8246,-22.9437 44.9726,-22.3711 19.5339,1.6351 37.7237,18.1418 55.7012,48.8379 13.9363,23.7958 33.153,-8.9772 11.125,-9.4122 4.0045,-10.5895 15.6216,-6.0776 21.8965,1.7735 18.4361,23.5132 -24.7388,55.2156 -49.125,26.539 -10.7079,30.7857 -45.7258,11.5918 -48.3008,-5.5351 42.8614,-1.6795 8.2054,-52.397 -12.375,-19.4609 -2.9053,4.6493 -3.9197,12.7708 1.3418,27.3125 9.7626,22.6042 38.0789,52.3348 110.6836,4.1699 30.9433,-9.8247 37.03577,20.4356 27.4071,31.8599 -6.9389,8.2329 -19.8029,1.5151 -22.3113,-1.2591 10.7662,-4.3669 8.6025,-15.6384 -0.5249,-14.1561 z"
           style="fill:#ffffff;fill-rule:evenodd;stroke:#000000;stroke-width:1px;stroke-linecap:butt;stroke-linejoin:miter;stroke-opacity:1" />
      </g>
      <path
         inkscape:connector-curvature="0"
         id="path4777"
         d="m 1043.6543,1516.3633 c -3.5791,-18.5474 -5.2647,-24.4568 -9.4938,-33.2835 l -4.9305,-10.2903 1.9441,-5.7056 c 1.0693,-3.1381 2.5855,-5.5206 3.3693,-5.2944 2.67,0.7704 9.3611,16.5515 11.4872,27.0927 1.3565,6.7255 1.8975,13.6244 1.502,19.152 -0.6503,9.0891 -2.8289,13.7678 -3.8783,8.3291 z m 35.4775,-5.7998 c -1.9524,-11.2119 -5.5654,-21.7868 -10.5945,-31.0097 l -4.1258,-7.5663 2.4497,-4.7748 2.4496,-4.7749 5.2512,5.1536 c 2.8881,2.8345 6.1862,5.1536 7.3291,5.1536 1.1429,0 4.1715,-2.5046 6.7304,-5.5658 4.2892,-5.1313 7.7887,-6.5169 6.2353,-2.4689 -0.9254,2.4115 2.5889,5.5347 6.2278,5.5347 2.0536,0 3.5315,-1.0294 4.4863,-3.125 2.3504,-5.1586 3.8888,-3.6264 3.2312,3.2181 -1.0649,11.0823 -7.5822,16.1608 -15.4494,12.0388 -3.0515,-1.5989 -3.7817,-1.5153 -7.521,0.8611 -2.6648,1.6936 -3.8923,3.3005 -3.443,4.507 1.2328,3.3096 2.0672,22.051 1.1901,26.7267 -1.2793,6.8191 -2.8137,5.4705 -4.447,-3.9082 z m 35.7952,7.494 c -1.0844,-1.8028 4.1093,-16.0012 8.5466,-23.3644 l 4.4757,-7.4268 -3.8029,-2.9763 c -4.7115,-3.6873 -4.7293,-5.5139 -0.132,-13.5292 6.944,-12.1067 16.0254,-13.779 23.4768,-4.3232 2.5454,3.2302 1.8361,3.7916 -3.8121,3.0175 -3.7838,-0.5187 -6.6071,-0.1254 -9.375,1.306 -4.7912,2.4776 -4.948,3.7793 -0.7838,6.5078 3.0078,1.9708 3.6366,1.925 11.8189,-0.8606 4.7531,-1.6182 8.9855,-2.5987 9.4053,-2.1789 0.4198,0.4198 0.1674,2.9294 -0.5609,5.5769 -1.1688,4.2488 -2.1588,5.1737 -8.4367,7.882 -8.7493,3.7743 -19.7816,14.2768 -25.3359,24.1192 -4.1946,7.4327 -4.5374,7.8235 -5.484,6.25 z m 72.4447,-0.3475 c -0.3335,-1.012 -1.5154,-6.6212 -2.6264,-12.465 -1.2018,-6.3207 -4.0803,-15.0023 -7.1054,-21.4302 l -5.0852,-10.8052 2.1913,-6.5975 c 2.0499,-6.1715 2.3076,-6.4423 3.9922,-4.1948 7.0044,9.3448 11.6133,26.1676 11.5861,42.2902 -0.018,10.8862 -1.5133,17.5708 -2.9526,13.2025 z"
         style="fill:#ffffff" />
      <g
         inkscape:path-effect="#path-effect4879"
         style="fill:#ffffff"
         transform="matrix(0.6416125,0,0,0.6416125,1626.5055,677.45622)"
         id="g4862">
        <path
           inkscape:original-d="m -653.98869,-228.19336 c -1.75235,-0.11434 -4.07683,1.99817 -9.07813,7.1582 -8.32245,8.58657 -8.65302,9.60266 -5.54687,17.10157 3.20506,7.7377 2.86854,8.4406 -11.41016,23.86328 -12.78057,13.80457 -14.71094,17.26955 -14.71094,26.39062 0,5.7747 1.21968,12.77811 2.71094,15.56446 1.88226,3.51711 1.85448,6.66803 -0.0918,10.30468 -2.75678,5.15108 -1.99197,5.23828 45.96094,5.23828 26.82048,0 48.36002,-0.88445 47.86523,-1.96484 -0.49475,-1.0804 -7.33421,-14.3393 -15.19921,-29.46484 -23.32806,-44.8631 -26.42374,-53.10084 -23.6211,-62.87305 l 2.43555,-8.49414 -5.53125,4.9082 c -3.45158,3.06281 -5.9154,3.81705 -6.55274,2.00586 -0.56175,-1.59638 -2.47112,-4.88265 -4.24218,-7.30469 -1.09208,-1.4935 -1.93691,-2.36498 -2.98828,-2.43359 z m -2.28126,53.08398 c 0.15616,-0.0196 0.31414,-0.0163 0.47657,0.01 1.94912,0.31281 4.40403,3.96431 8.64843,12.37891 4.07691,8.08249 7.41211,15.70778 7.41211,16.94531 0,1.23752 -2.91612,2.25 -6.48046,2.25 -10.78688,0 -19.28137,-22.95301 -11.40821,-30.82617 0.43862,-0.43862 0.88312,-0.69916 1.35156,-0.75782 z"
           style="fill:#ffffff"
           d="m -627.80471,-448.29118 c -2.19304,-0.61634 -5.69484,0.75089 -13.13433,4.42311 -12.38704,6.11438 -12.87866,7.17986 -10.52595,15.25969 2.03885,7.00194 1.8893,8.46671 -9.73775,15.36265 0,10e-6 -1e-5,10e-6 -1e-5,10e-6 -2.53959,1.50659 -5.37398,3.13231 -9.01039,5.25271 -18.02845,10.51248 -20.90408,14.03306 -22.37616,22.81631 -0.95213,5.68094 -0.6712,12.85972 0.58993,15.88783 1.60161,3.84588 1.00583,6.94006 -1.84891,10.13906 -3.23856,3.62909 -3.06442,4.08848 20.11065,8.94945 0,0 0,0 0,0 7.23327,1.51845 18.33695,3.84245 31.31856,6.95413 30.32564,7.26905 54.53338,14.14628 54.30068,12.92884 -0.26583,-1.39106 -3.8326,-16.05373 -8.82258,-33.41197 -7.65482,-26.628 -11.98542,-39.22942 -14.11933,-50.06046 -1.90806,-9.68477 -0.96718,-14.03256 2.01029,-18.34773 1.71519,-2.48617 3.43933,-4.96822 5.17238,-7.44611 -2.74304,0.98439 -5.47616,1.98098 -8.19923,2.98968 -5.09261,1.88648 -8.36539,1.88974 -8.75045,-0.0685 -0.34108,-1.7346 -1.9907,-5.48196 -3.70716,-8.37821 -1.05363,-1.77785 -1.9409,-2.87687 -3.27024,-3.25048 z m -14.5578,51.12838 c 0.19281,0.0232 0.38281,0.0694 0.57308,0.1392 2.26416,0.82817 4.47141,5.0806 7.55545,14.45753 2.96832,9.02503 4.98793,17.37299 4.68633,18.58257 -0.29934,1.20054 -3.92405,1.33673 -8.05448,0.34696 -6.22647,-1.49205 -10.58756,-8.35609 -12.0775,-15.56473 -1.48893,-7.2037 -0.0936,-14.79805 5.52038,-17.58666 0.6246,-0.31026 1.21832,-0.44447 1.79669,-0.37465 z"
           id="path4853"
           inkscape:connector-curvature="0" />
        <path
           inkscape:original-d="m -747.87269,-306.13281 -9.82226,10.12304 c -5.40198,5.56752 -12.50039,11.93518 -15.77539,14.15039 l -5.95508,4.02735 7.91602,16.73437 7.91796,16.73438 0.002,52.68555 c 0.002,48.88999 0.38352,53.16881 5.29297,59.41015 2.90974,3.69917 7.91835,7.233 11.13086,7.85352 9.6067,1.85571 32.59872,1.96318 37.26171,0.17383 3.03836,-1.16593 0.14437,-3.12939 -9.60742,-6.51758 -7.68826,-2.67124 -17.19026,-8.41108 -21.1582,-12.7793 l -7.20313,-7.92773 0,-77.33399 0,-77.33398 z"
           style="fill:#ffffff"
           d="m -742.56411,-545.1886 c -4.95614,2.94734 -9.86768,5.93241 -14.73384,8.95429 -7.80785,4.84878 -18.56691,10.86377 -22.98412,12.73603 -2.83085,1.19966 -5.65076,2.41203 -8.45958,3.63701 3.42145,5.72738 6.77621,11.4736 10.06441,17.23745 3.28909,5.7639 6.51159,11.54545 9.66766,17.34343 -1.15415,17.52437 -2.30835,35.04873 -3.46261,52.57309 -3.2144,48.80515 -3.00361,53.06154 2.2845,59.71699 3.11616,3.92196 8.67791,7.94587 12.30813,8.89178 5.32251,1.38691 14.98482,2.87882 23.50247,3.93977 8.63824,1.07596 16.71068,1.78666 19.48903,1.29636 3.56356,-0.62886 0.74952,-3.11246 -10.21997,-7.99088 -8.45155,-3.75864 -19.17846,-10.8398 -23.35889,-15.56079 -2.58084,-2.91381 -5.19056,-5.81539 -7.82912,-8.70424 l 6.86599,-77.03515 6.866,-77.03514 c 0,0 -6e-5,0 -6e-5,0 z"
           id="path4821"
           inkscape:connector-curvature="0" />
        <g
           style="fill:#ffffff"
           id="g4843"
           transform="translate(-1054.2628,-456.58895)">
          <path
             inkscape:original-d="m -396.11328,233.125 -28.1543,28.87891 c -17.51616,17.96654 -28.15625,30.93861 -28.15625,34.32812 0,3.11633 7.84739,13.91089 18.33399,25.2207 10.0837,10.87528 18.33398,21.01824 18.33398,22.53907 0,3.97088 -18.64626,20.49609 -23.12695,20.49609 -4.60914,0 -52.17786,-46.21028 -54.23242,-52.68359 -0.81,-2.55204 1.02254,-9.71576 4.07421,-15.91992 l 5.54883,-11.28126 -17.20508,17.39258 c -9.46298,9.56568 -17.20507,18.85689 -17.20507,20.64649 0,1.78961 13.86744,17.24079 30.8164,34.33593 25.24092,25.45858 32.1887,31.08204 38.40625,31.08204 6.21297,0 13.70922,-6.05282 41.29297,-33.34571 21.7751,-21.54552 34.45041,-36.14421 35.81836,-41.25195 2.5149,-9.39046 -0.89972,-20.53989 -12.69141,-41.43359 -4.58478,-8.12381 -9.12663,-20.22208 -10.09375,-26.88672 l -1.75976,-12.11719 z m -9.86719,40.4707 c 0.67778,0.19995 0.72435,1.74222 0.74609,4.8086 0.0246,3.46446 3.54006,12.19189 7.8125,19.39453 4.27245,7.20264 7.7879,14.93409 7.8125,17.17969 0.0246,2.24559 -1.58866,6.31616 -3.58398,9.04492 -3.35577,4.58931 -4.33787,3.55085 -13.0957,-13.83985 -10.862,-21.56908 -11.51709,-26.74182 -4.22852,-33.33789 2.55007,-2.30772 3.85933,-3.44994 4.53711,-3.25 z"
             id="path4841"
             d="m -492.47815,362.81035 c 0.005,15.53148 0.32925,30.9533 0.95008,46.26146 1.15565,28.5037 4.49844,46.82282 7.19304,48.71293 2.55058,1.7891 16.96811,0.0161 33.57665,-3.58506 16.00075,-3.4694 29.97032,-5.13363 31.1938,-4.20753 1.57651,1.1933 2.34176,8.70562 2.40871,16.38662 0.0669,7.67831 -0.56185,15.60278 -2.08201,17.71301 -1.51805,2.10731 -19.90542,7.86333 -38.64652,13.46309 -18.67559,5.58017 -38.21326,11.15054 -41.50477,10.47282 -2.68442,-0.55271 -7.4909,-6.31933 -10.62831,-12.87851 -1.90076,-3.97368 -3.78664,-7.96019 -5.6573,-11.95953 0.90164,9.17414 1.89914,18.3031 2.98749,27.38596 1.79719,15.00131 4.77343,27.87262 6.30407,28.81417 1.50887,0.92816 23.56109,-5.40738 48.85104,-12.81426 38.00204,-11.12999 46.43372,-13.21286 50.90041,-19.53739 4.54752,-6.43899 3.49192,-15.60427 1.57848,-58.39008 -1.50352,-33.61902 -2.55319,-54.43496 -5.53018,-59.1545 -5.19091,-8.22926 -16.49254,-12.55172 -41.96384,-14.16481 -9.86547,-0.6248 -23.07575,-3.65335 -29.01315,-6.78572 -3.6351,-1.91708 -7.27434,-3.82797 -10.91769,-5.73267 z m 24.14459,34.85254 c 0.67927,-0.55214 1.93528,0.34626 4.37748,2.20202 2.746,2.08654 12.36682,3.96656 21.25957,4.28467 8.92766,0.31935 17.60909,1.81086 19.39029,3.19791 1.76884,1.37741 3.73249,5.45307 4.37656,9.02712 1.1033,6.12231 -0.43288,6.13522 -20.67333,3.96514 -25.18337,-2.70006 -29.94272,-4.75259 -29.6251,-16.17854 0.10962,-3.94167 0.21778,-5.94822 0.89453,-6.49832 z"
             style="fill:#ffffff"
             inkscape:connector-curvature="0" />
          <path
             inkscape:original-d="m -310.9153,238.88371 c -0.89308,0 -5.62107,4.12417 -10.50781,9.16601 -4.88674,5.04185 -7.49017,9.16797 -5.78516,9.16797 1.705,0 7.13333,7.95613 12.0625,17.67969 14.93416,29.46034 14.94298,29.46484 51.35352,29.46484 28.20106,0 31.49935,0.49247 33.94726,5.06641 1.4912,2.78635 2.71094,5.83895 2.71094,6.7832 0,0.9443 -17.97336,1.31559 -39.94141,0.82618 -35.79889,-0.79756 -40.97687,-1.5014 -49.91406,-6.78321 -5.48433,-3.24119 -10.49294,-5.89258 -11.13086,-5.89258 -0.63791,0 -1.16015,7.66001 -1.16015,17.02344 l 0,17.02539 67.92773,0 c 44.80071,0 70.43595,-1.01733 75.29883,-2.98828 l 7.37304,-2.98633 -6.54687,-1.63476 c -4.97687,-1.24294 -9.37563,-7.12291 -18.33398,-24.50781 l -11.78711,-22.87305 -34.51368,-0.006 c -39.6427,-0.007 -37.76038,1.02541 -51.74414,-28.375 -4.22632,-8.8857 -8.41552,-16.15625 -9.30859,-16.15625 z"
             id="path4839"
             d="m -415.81388,283.18379 c -0.80525,0.84345 -2.03517,8.10093 -2.62188,16.12981 -0.58717,8.03532 0.24992,13.22946 1.70501,11.64654 1.4819,-1.61209 11.99177,-1.28165 23.30121,0.91234 17.2056,3.33791 25.43543,5.24993 33.66084,2.21533 8.35662,-3.08302 15.64631,-10.7501 31.97705,-25.99272 5.01869,-4.68429 9.30444,-8.55698 12.79681,-11.60665 0,0 1e-5,0 1e-5,0 13.86614,-12.11918 17.13781,-13.17316 21.17268,-11.96875 3.18042,0.94938 6.26706,2.3283 6.88054,3.04948 0.45028,0.52931 -7.70801,7.84792 -19.47849,18.42442 -4.91012,4.40694 -9.82407,8.82247 -15.58786,14.04648 -16.98874,15.39773 -23.5972,22.04597 -31.19166,28.26032 -6.49628,5.31574 -10.40485,7.31696 -16.0848,9.46743 -6.91609,2.61849 -12.98081,5.3166 -13.51269,5.89676 -0.52871,0.57669 4.69338,6.21002 11.59732,12.52668 l 12.55328,11.48545 c 18.01877,-19.71618 36.7412,-38.64402 56.19365,-56.66411 3.51645,-3.25752 6.91628,-6.36682 10.18777,-9.3281 0,0 10e-6,0 10e-6,0 33.22791,-30.12495 51.55283,-44.11638 55.17711,-49.57896 1.67943,-2.53011 3.37461,-5.05452 5.08562,-7.57295 -2.37339,1.09017 -4.74449,2.19258 -7.11316,3.30713 -5.5193,2.59681 -12.90906,0.93303 -32.28065,-5.93299 -8.4665,-3.00058 -17.0043,-5.8971 -25.60979,-8.68864 -10.89385,8.97574 -21.59019,18.19819 -32.0803,27.64994 -0.0955,0.086 -0.19093,0.17198 -0.28638,0.258 -18.4954,16.66897 -25.99113,24.79956 -34.23286,27.93116 -8.02182,3.04805 -15.47006,0.64037 -32.29233,-3.26122 -10.12184,-2.34756 -19.11171,-3.45489 -19.91616,-2.61228 z"
             style="fill:#ffffff"
             inkscape:connector-curvature="0" />
          <path
             inkscape:original-d="m -1707.9805,-246.39648 -6.9726,7.27929 c -3.8352,4.00312 -6.9727,8.52776 -6.9727,10.05469 0,1.52694 4.4203,5.77313 9.8223,9.4375 8.855,6.00663 10.144,6.24983 13.0957,2.47266 4.7864,-6.12499 4.0398,-11.60729 -2.8496,-20.94532 l -6.1231,-8.29882 z"
             style="fill:#ffffff"
             d="m -1808.739,-40.714538 c 0.2528,3.90372 0.5235,7.799651 0.8117,11.687733 0.4754,6.42077 1.9511,12.33585 3.222,13.190092 1.2652,0.850513 8.0043,-1.558217 14.9757,-5.246587 11.4417,-6.053443 12.5963,-7.154856 11.6945,-12.492348 -1.4447,-8.550242 -6.4344,-11.055297 -19.2852,-9.009076 -3.8036,0.605775 -7.6099,1.22922 -11.4187,1.870186 z"
             id="path4860"
             transform="translate(1248.5485,456.58895)"
             inkscape:connector-curvature="0" />
          <path
             inkscape:original-d="m -1673.873,-246.41016 -8.461,8.73243 -8.4629,8.73046 9.9727,8.14454 c 5.4848,4.47942 10.7115,8.18422 11.6172,8.23242 0.9056,0.0483 3.0748,-3.35519 4.8183,-7.56446 2.7977,-6.75427 2.4271,-8.74827 -3.1562,-16.96484 l -6.3281,-9.31055 z"
             style="fill:#ffffff"
             d="m -1782.5201,-77.334706 c 0.1175,4.727638 0.263,9.444628 0.4359,14.150863 0.1718,4.706519 0.371,9.402287 0.5968,14.087196 4.7321,-1.940583 9.4662,-3.847751 14.2017,-5.720968 7.8034,-3.086778 14.8186,-6.265835 15.5483,-7.160189 0.7355,-0.90127 -0.3082,-5.18229 -2.3024,-9.522492 -3.1902,-6.94326 -5.059,-7.851099 -16.0286,-6.935919 -4.1459,0.346344 -8.2965,0.71357 -12.4517,1.101509 z"
             id="path4858"
             transform="translate(1248.5485,456.58895)"
             inkscape:connector-curvature="0" />
          <path
             inkscape:original-d="m -332.2106,170.11398 -7.53012,7.43444 c -6.82957,6.74326 -7.2631,7.47338 -4.67021,7.8515 5.89393,0.85948 5.21412,2.64991 -4.95911,13.0725 -10.94022,11.20837 -12.73439,14.36167 -12.73439,22.37299 0,4.76023 -0.72519,5.9137 -8.88344,14.12674 -7.98167,8.03526 -8.7957,9.30208 -8.02238,12.48455 0.53696,2.20987 6.392,9.04637 15.56829,18.17742 8.49205,8.4502 15.71405,14.63575 17.08881,14.63575 1.30957,0 6.00889,-3.69577 10.44202,-8.21282 6.54284,-6.66667 7.23931,-7.72322 3.70053,-5.61019 -2.39776,1.43168 -5.40706,2.60581 -6.68766,2.60818 -2.70826,0.005 -25.58096,-20.6575 -28.12158,-25.40473 -1.52176,-2.84341 -1.4587,-3.50365 0.54519,-5.71794 2.1207,-2.34332 3.80829,-2.50323 26.41344,-2.50323 l 24.14803,0 -5.23775,-4.9823 c -3.1704,-3.01593 -6.43545,-4.98231 -8.27224,-4.98231 -4.91755,0 -11.46933,-3.78825 -13.56667,-7.84405 -3.06888,-5.93462 -1.5464,-12.12133 5.04828,-20.51532 5.71269,-7.27127 5.73096,-7.32613 5.73096,-17.14268 l 0,-9.8485 z"
             style="fill:#ffffff"
             d="m -485.44528,257.11004 c -0.48322,4.21152 -0.94059,8.41645 -1.37253,12.61472 -1.17882,11.46138 -0.90483,12.27924 1.65233,9.94896 6.04528,-5.50895 6.51895,-3.36742 5.40631,13.63529 -1.19705,18.29232 -0.0965,22.26675 5.91878,27.3785 3.67821,3.1257 3.81054,4.51688 3.34116,17.96053 -0.45608,13.06252 -0.0108,14.70223 3.03063,15.93029 2.17503,0.87826 12.1673,-0.65338 26.65534,-3.60657 13.37443,-2.72618 23.96266,-5.396 25.08997,-6.67743 1.07003,-1.21633 2.18576,-8.06981 2.55721,-15.21721 0.5397,-10.38419 0.46555,-12.13079 -1.03229,-7.21604 -0.97335,3.19368 -2.64155,6.80926 -3.70907,8.00572 -1.11806,1.25311 -10.36071,3.8468 -20.00251,6.19607 -9.60044,2.3392 -19.82893,4.49163 -22.64364,4.22187 -3.43475,-0.32917 -3.89796,-0.8073 -3.92185,-4.21835 -0.0226,-3.23543 1.18062,-5.83121 20.52146,-27.48981 6.95311,-7.78635 14.01252,-15.47942 21.1794,-23.07384 -2.76156,0.50826 -5.52501,1.02848 -8.29026,1.56058 -5.02584,0.96696 -9.36081,2.78007 -10.98617,4.55655 -4.31963,4.72127 -12.90105,8.60459 -17.74515,7.98336 -7.08992,-0.90929 -10.49533,-6.47051 -10.83645,-18.65159 -0.29658,-10.59288 -0.23336,-10.59154 -7.52881,-17.22184 z"
             id="path4837"
             inkscape:connector-curvature="0" />
          <path
             inkscape:original-d="m -156.46094,149.33203 -13.3789,12.0293 c -7.35845,6.61588 -14.37996,12.02929 -15.60352,12.02929 -1.22356,0 1.26026,7.36585 5.51953,16.36915 l 7.74414,16.36914 0.002,62.20507 0.002,62.20508 101.492186,-0.041 c 55.820451,-0.022 103.103551,-1.06016 105.074219,-2.3086 2.881003,-1.8251 2.442877,-3.41064 -2.232422,-8.08593 -3.198076,-3.19808 -8.807056,-12.47138 -12.464844,-20.60743 -11.3919808,-25.33935 -7.633967,-23.95898 -65.246093,-23.95898 -27.86701,0 -50.688035,-0.88444 -50.708985,-1.96484 -0.02205,-1.08039 -1.156466,-3.73133 -2.521484,-5.89063 -2.034027,-3.21767 -4.837807,-1.60274 -15.544917,8.94336 l -13.06446,12.86719 6.41797,7.6289 c 3.53057,4.19581 6.41992,8.71685 6.41992,10.04688 0,1.33 -6.32237,2.41797 -14.04883,2.41797 -11.68624,0 -15.20903,-1.16024 -20.95312,-6.9043 l -6.9043,-6.90625 0,-73.2207 0,-73.22266 z m 109.480471,147.1582 c 36.098604,0 42.4296878,1.44667 42.4296878,9.69141 0,2.63604 -8.5122258,3.4043 -37.6972658,3.4043 -38.563452,0 -40.876953,-0.60567 -40.876953,-10.69141 0,-1.3443 15.940815,-2.4043 36.144531,-2.4043 z"
             id="path4835"
             d="m -315.87241,79.214213 c -2.89737,6.91366 -5.69778,13.831795 -8.40291,20.752262 -4.4549,11.396205 -8.96272,21.619385 -10.28896,22.626225 -1.36216,1.03411 5.8772,4.77959 15.91587,8.51187 6.08858,2.26357 12.14282,4.57572 18.16162,6.93615 12.24775,16.73914 24.49545,33.47833 36.7431,50.21754 12.24766,16.73922 24.49527,33.47847 36.74284,50.21775 31.99581,-23.44812 65.47075,-44.61498 100.19722,-63.04577 18.19459,-9.65643 35.193445,-17.86133 50.934449,-24.93924 34.175545,-15.43546 58.562119,-23.87628 59.985741,-25.41994 2.565623,-2.78191 1.64282,-4.16531 -5.074801,-6.81339 -4.460355,-1.75827 -14.012013,-8.43342 -20.848857,-14.48831 -8.970907,-7.944881 -13.640174,-12.614773 -20.588533,-13.448516 -6.818086,-0.818111 -16.755151,2.067307 -35.430401,10.122926 0,0 -7e-6,0 -7e-6,0 -7.295081,3.14277 -16.355001,7.28037 -26.840991,12.34171 -31.18075,15.05021 -56.11255,28.77237 -56.67881,27.84723 -0.56634,-0.92263 -3.11701,-2.50257 -5.68864,-3.50246 -3.73152,-1.45093 -6.2301,1.66406 -12.06606,17.65694 -2.36837,6.48969 -4.6429,12.98168 -6.82533,19.47385 3.57951,0.7261 7.14562,1.47468 10.69794,2.24571 5.86937,1.27329 11.18432,3.30121 11.88363,4.4383 0.69599,1.1317 -5.19356,6.01705 -12.96686,11.01923 -11.86468,7.63502 -15.72679,9.02498 -24.81883,8.20162 -3.59592,-0.32615 -7.20305,-0.62873 -10.82097,-0.90772 l -41.96011,-60.02121 -41.96123,-60.022822 c 0,0 -1.1e-4,6.5e-5 -1.1e-4,6.5e-5 z m 198.7567,53.185297 c 11.75937,-5.70515 21.102156,-9.73897 27.920695,-12.28267 0,0 3e-6,0 3e-6,0 16.056785,-6.00657 20.509698,-4.86713 22.637581,0.35831 0.73645,1.8085 -3.742024,4.40063 -17.682997,10.93489 0,0 -3e-6,0 -3e-6,0 -5.052874,2.36101 -13.618586,6.29721 -22.076149,10.32337 -21.36982,10.17295 -30.79748,15.46895 -37.82182,17.5041 -6.34882,1.83942 -8.23863,-0.1182 -10.68974,-4.54252 -0.64237,-1.1595 15.66252,-11.59779 37.71243,-22.29548 z"
             style="fill:#ffffff"
             inkscape:connector-curvature="0" />
        </g>
        <path
           inkscape:original-d="m -954.87962,-219.31445 c -2.2274,0.26523 -9.091,7.02043 -26.877,24.67187 -22.56458,22.39392 -28.98428,30.32303 -28.98428,35.79883 0,3.86864 4.1242,15.64155 9.166,26.16211 5.04178,10.52057 9.16788,21.05939 9.16788,23.41992 0,2.36055 -2.9227,8.59851 -6.4941,13.861329 l -6.49408,9.56836 7.14838,-1.712891 c 17.4736,-4.188321 31.9945,-17.993248 32.0215,-30.443358 0.01,-4.05634 2.9953,-4.58399 25.9746,-4.58399 l 25.9668,0 -20.9922,-40.74414 c -18.6791,-36.25711 -20.7976,-41.81146 -19.2422,-50.41992 0.6435,-3.56168 0.9751,-5.73727 -0.3613,-5.57812 z m -16.6231,44.10937 c 1.8345,0.21121 3.6639,3.94491 8.252,13.64649 4.1314,8.73591 7.5117,16.36806 7.5117,16.95898 0,0.59092 -3.4382,1.07422 -7.6406,1.07422 -6.6466,0 -8.2298,-1.53982 -12.1582,-11.82617 -4.2963,-11.24991 -4.2903,-12.07387 0.1289,-16.95703 1.7023,-1.88107 2.8056,-3.02321 3.9062,-2.89649 z"
           style="fill:#ffffff"
           d="m -1017.9526,-440.71149 c -2.3528,0.77353 -10.5448,9.59076 -27.3925,32.34928 -21.2904,28.75982 -25.597,39.87785 -24.0898,44.5432 1.1756,3.63886 9.5686,13.38478 18.2554,21.67451 8.7442,8.3446 16.158,17.11313 16.827,19.40327 0.6581,2.25231 -0.7628,9.19147 -3.0276,15.36265 -1.3764,3.74977 -2.7188,7.50178 -4.0271,11.25554 2.3208,-1.32721 4.652,-2.64261 6.9934,-3.94605 16.9364,-9.42975 29.5253,-26.86653 26.5677,-38.87809 -0.8949,-3.63986 2.1226,-5.72857 28.08009,-11.09525 9.76778,-2.01947 19.57437,-3.84262 29.41124,-5.46698 -10.16503,-12.0859 -20.74641,-23.96985 -31.73371,-35.63258 -15.33019,-16.27361 -22.86802,-23.53151 -28.31512,-30.34909 -4.8654,-6.08958 -5.8578,-9.44627 -5.8415,-13.88967 0.013,-3.65546 -0.045,-5.87724 -1.7075,-5.33074 z m -10.0226,47.84142 c 2.2076,-0.35402 5.4149,2.68561 13.11,10.78065 6.943,7.30391 12.5562,13.83076 12.6909,14.41206 0.1334,0.57544 -3.7301,1.96185 -8.5648,3.14267 -7.6932,1.879 -9.7645,0.87949 -16.9831,-7.88437 -7.8715,-9.55682 -8.2066,-10.29225 -4.1773,-16.43457 1.5427,-2.35191 2.5791,-3.80073 3.9243,-4.01644 z"
           id="path4831"
           inkscape:connector-curvature="0" />
        <path
           inkscape:original-d="m -358.40932,-222.05469 c -2.57022,-0.0735 -15.44141,12.58771 -15.44141,15.18946 0,1.31441 4.42029,5.35663 9.82227,8.98242 10.27821,6.89868 14.68188,6.0875 17.09765,-3.15039 1.18422,-4.52848 -7.7636,-20.9152 -11.47851,-21.02149 z"
           style="fill:#ffffff"
           d="m -281.25244,-283.2286 c -1.33936,-1.02995 -7.24172,-1.45217 -13.00226,-1.28761 -5.75899,0.16451 -11.32243,0.91202 -12.07302,1.98213 -0.75209,1.07224 1.56856,7.63783 5.00053,14.58437 6.51757,13.19196 11.24943,15.94205 19.34315,10.4138 3.98226,-2.72002 4.6905,-22.64828 0.7316,-25.69269 z"
           id="path4829"
           inkscape:connector-curvature="0" />
        <path
           inkscape:original-d="m -344.51479,-250.6875 -6.81055,6.31055 c -9.02782,8.36669 -8.49095,11.80148 3.10938,19.89648 l 9.72265,6.78516 3.18165,-5.47657 c 4.6424,-7.99159 4.10256,-11.70346 -2.91797,-20.04687 l -6.28516,-7.46875 z m 123.29492,10.09766 -8.73242,8.1582 -8.73437,8.1582 10.33789,8.69922 c 7.30345,6.14698 11.26829,7.93489 13.50976,6.08984 6.34528,-5.22306 6.33095,-12.39725 -0.043,-21.77734 l -6.33789,-9.32812 z m -104.25976,18.08007 -7.16016,5.63282 c -9.61191,7.56071 -9.02639,11.82932 2.66016,19.38867 8.87787,5.74258 10.13641,5.94941 13.0957,2.15625 4.83635,-6.19916 4.00608,-12.52932 -2.66016,-20.2793 l -5.93554,-6.89844 z"
           style="fill:#ffffff"
           d="m -249.35538,-295.09049 c -3.7029,-0.18627 -7.39834,-0.34809 -11.08612,-0.48572 -14.8204,-0.5517 -15.84159,2.87241 -8.69336,18.36033 2.01255,4.36085 3.98242,8.72626 5.90942,13.09548 2.20763,-0.59355 4.41993,-1.17947 6.63686,-1.75772 9.6594,-2.51985 11.58859,-5.79542 9.32925,-18.15432 -0.67335,-3.68233 -1.37204,-7.36845 -2.09605,-11.05805 z m 114.6164,119.24255 c -4.62363,-1.07871 -9.24185,-2.11 -13.85397,-3.09481 -4.6127,-0.98543 -9.21931,-1.92436 -13.81913,-2.81769 1.0066,5.27249 1.9545,10.53633 2.84329,15.78983 1.8828,11.13508 3.82021,16.09564 7.14372,17.05214 9.25199,2.66269 14.83374,-1.86643 16.31309,-14.43013 0.48916,-4.15222 0.9468,-8.3189 1.37297,-12.49937 0,0 3e-5,3e-5 3e-5,3e-5 z M -246.97247,-257.354 c -3.60172,-0.50146 -7.19833,-0.97808 -10.78961,-1.4301 -14.62969,-1.84213 -16.2046,2.26954 -9.40602,17.29147 5.21565,11.52435 6.13029,12.6842 11.50009,12.154 8.62659,-0.85177 12.04047,-6.29735 10.30531,-17.79218 -0.51432,-3.40379 -1.05091,-6.81161 -1.60977,-10.22319 z"
           id="path4827"
           inkscape:connector-curvature="0" />
        <path
           inkscape:original-d="m -886.45021,-303.28711 -10.67581,10.35938 c -5.8716,5.69818 -12.7361,11.01534 -15.2539,11.81445 -4.1372,1.31312 -3.8034,3.01505 3.4726,17.68359 l 8.0508,16.23047 0.7871,62.3125 0.7871,62.31445 69.2598,0 69.25781,0 -21.04102,-40.66992 c -18.59363,-35.93788 -20.85288,-41.80401 -19.41796,-50.41797 1.5988,-9.59781 1.17061,-9.29376 -27.71485,19.81836 -29.31517,29.5452 -29.33707,29.57806 -27.67967,39.94336 l 1.6601,10.37305 -8.9668,0 c -6.7956,0 -10.6062,-1.95032 -15.7461,-8.05859 l -6.7792,-8.0586 0,-71.82226 0,-71.82227 z m 69.01753,124.49219 7.19727,15.66992 c 3.95802,8.61882 7.28622,16.55437 7.39648,17.63477 0.11032,1.08039 -2.72091,1.96484 -6.29297,1.96484 -4.9617,0 -7.78303,-2.52305 -11.94922,-10.68945 -5.231,-10.25362 -5.26774,-10.97233 -0.90234,-17.63477 l 4.55078,-6.94531 z"
           style="fill:#ffffff"
           d="m -940.33001,-539.4445 c -4.64777,4.04099 -9.23264,8.11691 -13.75441,12.22625 -7.39852,6.72438 -16.21659,13.5503 -19.47341,14.86619 -5.61996,2.27075 -4.56959,3.78002 7.52874,16.70583 4.47007,4.77578 8.87709,9.58467 13.22047,14.42553 3.30546,20.50798 6.58579,41.01979 9.84099,61.5354 3.25528,20.51625 6.48544,41.03631 9.69045,61.56011 11.11724,-1.57016 22.26664,-2.88627 33.43598,-3.94483 15.29379,-1.46355 30.6494,-2.44768 46.03736,-2.96188 26.63766,-0.8901 53.37227,-0.37198 80.051,1.50524 -7.1573,-14.0943 -14.73837,-28.09139 -22.74519,-41.97045 -21.64385,-37.51594 -25.27529,-41.48207 -23.12835,-50.99051 1.07648,-4.76756 1.50079,-7.12868 -3.10604,-4.63187 -4.06571,2.20353 -14.72575,10.04685 -32.08289,24.82565 -17.5753,14.96455 -26.64672,23.91044 -30.17648,28.73634 -3.85503,5.2706 -3.13445,7.86571 -1.76416,12.93961 0.91843,3.39855 1.82814,6.79858 2.72913,10.20005 -3.53318,0.25389 -7.064,0.53229 -10.59214,0.83531 -2.74956,0.23614 -5.0984,0.22278 -7.27732,-0.11853 -4.18594,-0.6592 -7.69421,-2.52005 -12.1597,-6.07485 -2.98136,-2.374 -5.98956,-4.73056 -9.02432,-7.0693 l -8.62485,-71.29964 z m 100.25435,117.85883 c 3.04958,5.1793 6.04292,10.37563 8.98013,15.58808 4.85394,8.61531 8.74146,16.55503 8.86623,17.65106 0.12321,1.08164 -3.25045,1.93479 -7.48693,1.94216 -5.91384,0.0103 -9.21371,-2.45569 -14.39453,-10.53295 -6.49443,-10.12531 -6.70889,-10.79932 -1.45937,-17.60555 1.81539,-2.35372 3.64691,-4.70137 5.49447,-7.0428 z"
           id="path4825"
           inkscape:connector-curvature="0" />
        <path
           inkscape:original-d="m -161.92578,-303.79883 -12.44531,11.64258 c -6.84528,6.40296 -13.94388,12.1395 -15.77539,12.75 -2.38898,0.79632 -1.0606,5.42559 4.70117,16.37891 l 8.03125,15.26757 0,51.94727 c 0,28.57049 1.17003,55.02318 2.59961,58.7832 1.44519,3.80118 6.38678,8.48116 11.13086,10.54297 9.1589,3.98055 35.28307,5.14228 40.53906,1.80274 2.02258,-1.28511 -0.98445,-3.26326 -8.18945,-5.39063 -6.26093,-1.84864 -15.35869,-6.67878 -20.21875,-10.73437 l -8.83789,-7.375 -0.76758,-77.80664 -0.76758,-77.8086 z m 74.539061,79.16797 -10.1875,10.43164 c -5.602891,5.73789 -8.786381,10.4336 -7.074221,10.4336 1.71213,0 6.594922,6.8957 10.849612,15.32421 4.254691,8.4285 10.858775,19.03603 14.675781,23.57227 l 6.939453,8.24805 30.673828,0 c 30.704639,0 36.9589848,1.67123 36.9589848,9.8789 0,2.92221 -7.2179668,3.43142 -38.6328128,2.72461 -38.223095,-0.85998 -40.84724,-1.37308 -61.548826,-12.0293 -1.0804,-0.55613 -1.96485,6.74895 -1.96485,16.23243 l 0,17.24218 69.580082,0 c 48.795914,0 71.286802,-0.92983 75.298829,-3.11328 l 5.720703,-3.11328 -6.546875,-1.56836 c -5.033649,-1.20512 -9.214101,-6.84387 -18.080078,-24.38672 l -11.5332035,-22.82031 -32.5097655,0 c -18.465837,0 -34.815922,-1.23487 -37.847656,-2.85742 -2.935639,-1.5711 -9.710566,-12.15792 -15.054688,-23.52734 l -9.716797,-20.67188 z"
           inkscape:connector-curvature="0"
           style="fill:#ffffff"
           d="m -33.72396,-151.65164 c -6.686324,-2.55711 -13.371239,-5.00458 -20.052751,-7.34507 -10.944653,-3.83453 -21.81259,-8.09834 -23.827839,-9.65371 -2.782862,-2.14782 -5.056229,2.3393 -8.670256,15.356 -1.681195,6.05527 -3.423488,12.07292 -5.226883,18.05126 l -41.038661,31.82015 c -22.47554,17.426854 -42.68604,34.908873 -44.58939,38.401706 -1.97528,3.624748 -2.24264,11.045443 -0.68763,16.595214 1.48308,5.293132 6.39544,14.368298 11.34191,22.292762 4.98411,7.98475 10.25462,15.211473 13.22076,16.82137 2.26744,1.2306634 2.23432,-2.661358 -0.50209,-10.77015 -2.29934,-6.813688 -4.29108,-18.58219 -4.25102,-25.36552 0.025,-4.225549 0.005,-8.467995 -0.0607,-12.726291 20.76486,-15.523912 41.50921,-31.075632 62.233044,-46.655081 20.724357,-15.57984 41.428192,-31.18741 62.111486,-46.82264 z m -11.217855,129.532684 c -5.193478,-2.281843 -10.392895,-4.480902 -15.595646,-6.599155 -8.612697,-3.505963 -14.683456,-4.540856 -13.596924,-2.684362 1.120628,1.914753 -1.724387,10.748474 -6.510455,19.513554 -4.593348,8.4121497 -10.439143,21.2560585 -12.223193,27.028164 -1.1552,3.736723 -2.344723,7.447827 -3.568353,11.132156 5.452811,10.816036 10.569112,21.773553 15.319268,32.855285 14.294081,33.346938 13.256781,41.330254 6.166737,43.714004 -3.438727,1.15614 -4.797472,-7.072078 -18.520636,-40.531888 -9.210183,-22.456254 -12.942283,-28.959105 -16.585193,-40.063617 -3.07296,-9.367178 -3.69012,-15.952415 -5.33566,-29.6165179 -0.16924,-1.4052385 -7.00151,1.4234754 -15.16617,6.2446082 l -14.85477,8.7715624 c 13.22635,22.4865063 24.96989,45.6685643 34.88469,69.3446483 22.157337,52.910664 22.946305,71.039004 28.358943,77.649154 1.470969,1.79644 2.930413,3.60858 4.377996,5.43654 0.01541,-2.45219 0.009,-4.90989 -0.01895,-7.37276 -0.06798,-5.91783 4.353256,-11.14935 18.590448,-25.86776 6.132798,-6.34011 12.150536,-12.86278 18.050526,-19.55978 C -45.026448,94.661975 -49.358838,82.175251 -54.131048,69.835257 -62.194487,48.9848 -69.807847,30.023625 -69.953377,26.129246 c -0.142352,-3.80884 5.720172,-16.1956306 12.635528,-27.4124286 4.221556,-6.8474996 8.3475,-13.7945084 12.376034,-20.8357734 z"
           id="path4823" />
        <path
           inkscape:original-d="m -485.54409,-339.82812 c -2.71782,-0.99758 -6.44556,4.84291 -20.75976,27.57812 -10.61667,16.86244 -18.67906,31.66969 -17.91602,32.9043 0.76301,1.23461 1.73388,2.24414 2.15821,2.24414 1.69699,0 43.44531,-49.65166 43.44531,-51.66992 0,-1.19182 -1.88752,-4.86031 -4.19336,-8.15235 -1.0363,-1.47952 -1.82843,-2.57177 -2.73438,-2.90429 z m 10.85547,23.25585 -20.58203,20.73438 -20.58398,20.73437 14.69531,-4.96093 c 13.23793,-4.46909 15.59407,-4.58536 23.76367,-1.17188 10.00074,4.17858 13.61605,12.45632 10.67188,24.4336 -1.12877,4.59203 -15.94625,20.83939 -40.88086,44.82617 -39.09643,37.61028 -43.77593,44.40377 -35.9668,52.21289 2.2463,2.2463 18.93853,3.14258 58.50977,3.14258 l 55.36718,0 2.98438,6.54687 2.98242,6.54883 -67.68359,0 -67.6836,0 -6.90625,-6.9043 -6.90429,-6.90625 0,-73.2207 0,-73.22266 -13.37891,12.0293 c -7.35846,6.61586 -14.37997,12.0293 -15.60352,12.0293 -1.22356,0 1.26026,7.36584 5.51953,16.36914 l 7.74415,16.36914 0.002,62.20508 0.002,62.20507 173.97071,0 173.97265,0 8.15235,6.85938 c 4.48386,3.7729 10.01988,10.46812 12.30078,14.87891 l 4.14648,8.019527 16.71094,-17.210937 c 11.61592,-11.96311 16.71289,-19.23626 16.71289,-23.85156 0,-3.65205 -4.71445,-16.38938 -10.47656,-28.30469 -5.98091,-12.3678 -10.52269,-25.65635 -10.58399,-30.96875 l -0.10742,-9.30664 -10.41797,11.52344 c -14.65805,16.21314 -15.23265,21.03703 -5.14844,43.14257 9.24607,20.26823 12.30206,30.45704 9.13672,30.45704 -1.10913,0 -8.24755,-5.89307 -15.86328,-13.09571 -12.846,-12.14922 -14.8008,-13.0957 -27.04101,-13.0957 l -13.19336,0 -13.19532,-27.97461 -13.19531,-27.97461 -9.0957,8.81445 c -7.88935,7.64667 -8.61603,9.35712 -5.49414,12.91407 3.55763,4.05344 17.29101,30.12437 17.29101,32.82421 0,0.76816 -3.58071,1.39649 -7.95703,1.39649 -7.41314,0 -8.6028,-1.43195 -17.40039,-20.95313 -5.19363,-11.52423 -10.22041,-20.95312 -11.17187,-20.95312 -0.95145,0 -5.54882,3.93783 -10.21485,8.75195 -7.63459,7.87691 -8.06166,9.10477 -4.26953,12.25196 3.92164,3.25467 11.72656,16.20814 11.72656,19.46289 0,0.7918 -3.54947,1.43945 -7.88671,1.43945 -6.95619,0 -8.71714,-1.69927 -14.94922,-14.40625 -3.88576,-7.9229 -7.77945,-14.4043 -8.65039,-14.4043 -0.87092,0 -4.85547,3.41669 -8.85547,7.5918 -7.07763,7.38744 -7.1536,7.77296 -2.8086,14.4043 l 4.46485,6.81445 -14.45899,0 -14.45898,0 -7.9668,-17.02539 -7.9668,-17.02344 -37.92578,0 c -37.85146,0 -37.93566,-0.0127 -43.35351,-6.90039 -8.96524,-11.39747 -6.9855,-16.57551 14.4082,-37.69141 31.82199,-31.40878 33.06913,-36.92426 16.17773,-71.57226 l -11.13281,-22.83399 z"
           style="fill:#ffffff"
           d="m -370.79761,-474.65929 c -2.90682,-2.46409 -10.94317,-0.11705 -38.92017,12.05024 -20.79476,9.04372 -36.79584,18.36819 -36.31446,19.91141 0.48321,1.54924 1.31428,3.00642 1.85045,3.23773 0.85311,0.36804 13.1636,-3.13081 27.86597,-7.13495 -72.49016,19.74246 119.05729,-32.24034 41.72424,-11.11483 0,0 0,0 0,0 4.71897,-1.29264 7.7184,-2.20693 7.89573,-2.55897 0.52992,-1.05196 -0.23298,-5.44328 -1.7417,-9.82909 -0.0213,-0.0619 -0.0427,-0.12389 -0.0643,-0.18582 -0.69639,-1.99771 -1.25324,-3.49201 -2.29573,-4.37572 z m 3.62944,27.8267 c -4.637,0.6605 -9.25686,1.35337 -13.85921,2.07816 -7.20184,1.12906 -14.36199,2.33621 -21.47882,3.62011 -11.66589,2.10402 -23.21541,4.41426 -34.64136,6.92484 6.83213,1.20894 13.6669,2.49331 20.50266,3.85343 13.73192,2.73213 19.1028,4.40991 24.33439,8.31452 1.78306,1.32943 3.59434,2.94599 5.7366,4.98749 10.51346,10.01903 10.8365,19.6646 1.7834,28.39895 -2.13412,2.05899 -11.94771,4.56842 -28.10739,8.05596 -9.33179,2.01181 -25.76724,5.39031 -40.04224,8.49306 -30.10174,6.54278 -47.93516,12.4328 -55.96036,16.67593 -8.57301,4.53278 -8.92164,8.34785 -5.96085,13.69907 2.19303,3.96362 19.92444,10.14989 63.71452,31.72231 0.85204,0.41974 1.70339,0.84084 2.55408,1.2633 19.20909,9.5489 38.07294,19.78492 56.52869,30.68888 -0.0714,2.49282 -0.15192,4.98317 -0.24143,7.471 -0.0905,2.48798 -0.19006,4.97344 -0.29862,7.4563 -20.12454,-12.11381 -40.75836,-23.4186 -61.81491,-33.88792 -3.10472,-1.54171 -6.21858,-3.06504 -9.34135,-4.56986 -24.30084,-11.71029 -49.14096,-22.30013 -74.40672,-31.70965 -1.77496,-3.117 -3.57488,-6.22932 -5.39977,-9.33662 -1.82393,-3.10764 -3.67283,-6.21027 -5.54674,-9.30754 l 24.23869,-69.09397 24.23933,-69.09582 c -7.28647,1.69415 -14.52307,3.46753 -21.70796,5.31878 -11.83085,3.04804 -22.74994,5.36684 -24.33893,4.88026 -1.63348,-0.5002 -0.44472,7.55825 2.37811,17.87729 1.7122,6.25869 3.36258,12.51779 4.95144,18.77636 -6.43608,19.71065 -12.87222,39.42129 -19.30841,59.13191 -6.43618,19.71061 -12.87243,39.42121 -19.30873,59.13179 39.10671,12.77745 77.32819,28.44133 114.22902,46.76228 23.7169,11.7959 46.88072,24.6722 69.35848,38.58826 38.56457,23.87547 75.10968,50.81153 108.96375,80.60296 16.56291,14.60973 32.49363,29.85553 47.66188,45.7085 0.50849,3.83998 0.98137,7.67104 1.41843,11.49236 0.73155,6.397527 -0.0254,15.34464 -1.64158,20.24996 -0.96485,2.927778 -1.94572,5.845113 -2.94259,8.751767 8.35685,0.781577 16.74662,1.7264 25.16433,2.8416 17.64464,2.337878 26.83189,2.682272 30.54345,-0.24863 2.9027,-2.292172 9.44888,-14.409547 14.27465,-27.394584 4.9707,-13.374963 11.45203,-26.390583 15.4206,-29.857343 2.33645,-2.04103 4.67255,-4.08249 7.00829,-6.12435 -5.79476,-0.89242 -11.5765,-1.71014 -17.34401,-2.45505 -24.47228,-3.16096 -28.02703,0.40203 -36.47531,23.89636 -7.8212,21.750517 -13.60717,30.66615 -15.84524,28.089183 -0.80828,-0.930673 -1.69856,-10.948955 -2.34065,-22.312883 -1.07068,-18.9493 -2.43097,-21.95703 -12.40668,-31.99297 -3.67444,-3.69663 -7.38839,-7.35863 -11.14022,-10.98564 2.73028,-10.33585 5.28753,-20.76666 7.67157,-31.28412 2.38405,-10.51746 4.5949,-21.12156 6.63239,-31.80401 -2.72793,-0.21186 -5.45177,-0.40926 -8.17139,-0.59238 -2.09876,-0.14116 -4.19511,-0.27376 -6.289,-0.39787 -12.51471,-0.74077 -14.25126,0.14874 -13.62844,5.30158 0.35086,2.90286 -0.41931,11.30081 -1.66043,19.64326 -1.35382,9.08803 -3.22975,17.83339 -4.18772,18.89808 -0.50903,0.56572 -4.02845,-1.77394 -7.88849,-5.16019 -0.0363,-0.0318 -0.0726,-0.0636 -0.10892,-0.0956 -6.77095,-5.95446 -6.5753,-7.60062 -2.29456,-29.55425 2.5188,-12.91773 3.56086,-24.19572 2.62164,-24.95413 -0.93633,-0.75607 -7.87114,-1.29245 -15.39978,-1.06735 -12.31597,0.36825 -13.38551,1.18384 -11.66902,6.441 1.83797,5.62922 1.18785,21.42156 -0.91367,24.04554 -0.49476,0.61775 -4.19796,-1.52512 -8.2637,-4.70598 -6.59532,-5.15991 -7.08283,-7.60593 -5.51351,-22.35511 0.97573,-9.1704 0.92764,-17.22934 0.0513,-17.86843 -0.87561,-0.63854 -6.84756,-0.76274 -13.25984,-0.18979 -11.34337,1.01353 -11.54819,1.41224 -11.09773,9.79344 0.15514,2.88714 0.2952,5.77054 0.42021,8.65006 -4.67828,-3.33827 -9.39207,-6.62942 -14.1401,-9.87308 -4.74803,-3.24366 -9.53029,-6.43981 -14.34552,-9.58808 0.45341,-6.48431 0.84397,-12.98884 1.17155,-19.51245 0.32724,-6.52306 0.5915,-13.0652 0.79269,-19.62529 -13.32411,-8.29708 -26.8703,-16.24558 -40.61555,-23.83845 -19.87258,-10.97762 -27.31113,-14.36825 -34.84727,-18.96604 -7.55611,-4.60794 -8.30137,-6.78382 -10.06293,-11.89106 -4.84841,-14.05679 -1.64919,-18.84951 28.30833,-24.8369 1.52653,-0.30526 3.12442,-0.61254 4.79371,-0.92188 25.77702,-4.77694 39.6672,-7.18957 47.02475,-14.37286 7.15832,-6.98879 7.56196,-18.40913 5.22,-39.21772 -1.03121,-9.15929 -2.18283,-18.33695 -3.45512,-27.53 0,0 -1.2e-4,-6e-5 -1.2e-4,-6e-5 z"
           id="path4816"
           inkscape:connector-curvature="0" />
      </g>
    </g>
  </g>
</svg>
