<svg width="258" height="64" viewBox="0 0 258 64" fill="none" xmlns="http://www.w3.org/2000/svg">
<g clip-path="url(#clip0_249_5453)">
<path d="M162.724 17.238C163.081 17.0595 164.044 16.5118 164.734 16.488C164.853 16.488 165.056 16.4523 165.222 16.3095C165.96 15.6904 166.459 14.0952 166.543 13.119C166.59 12.4761 166.412 11.2618 165.579 11.2023C165.258 11.1785 164.937 11.3571 164.758 11.6547C164.377 12.4761 164.365 12.4999 163.901 13.3452C163.735 13.6547 163.913 14.0833 164.199 14.3214C164.592 14.6666 165.282 14.6071 165.734 14.4166C165.543 15.1785 164.092 16.0237 163.461 16.4285C163.2 16.619 162.771 16.8928 162.724 17.238Z" fill="#2B2A29"/>
<path d="M162.022 14.0713C162.224 13.4047 162.403 12.6309 162.581 11.7975C162.605 11.6547 162.641 11.5118 162.724 11.3809C162.498 11.3809 162.391 11.7737 162.343 11.9642C162.26 12.2618 162.177 12.5713 162.07 12.857C161.475 14.5832 160.285 15.8094 158.75 16.7856C158.584 16.8928 158.334 17.0594 158.334 17.2499C158.738 17.1309 159.536 16.7737 159.904 16.7737C161.189 16.7737 161.701 15.0951 162.022 14.0713Z" fill="#2B2A29"/>
<path d="M162.688 6.59521C162.26 7.13093 161.927 7.5595 161.403 8.23807C161.986 8.38093 162.605 8.86902 162.831 9.15474C163.224 8.89283 163.818 8.22617 163.818 7.70236C163.818 7.16664 163.283 6.82141 162.688 6.59521Z" fill="#2B2A29"/>
<path d="M158.917 7.54753C158.751 7.85705 158.536 8.2261 158.31 8.66657C157.953 9.40467 157.775 10.0832 157.775 10.9761C157.787 12.3094 157.775 15.488 157.216 16.6428C158.144 16.1428 158.572 13.9166 158.655 12.9642C158.798 11.4285 158.727 8.91657 159.226 7.54753C159.357 7.19038 159.369 6.96419 159.274 6.88086C159.155 7.09515 159.036 7.32134 158.917 7.54753Z" fill="#2B2A29"/>
<path d="M156.038 14.0713C156.24 13.4047 156.418 12.6309 156.597 11.7975C156.621 11.6547 156.656 11.5118 156.74 11.3809C156.514 11.3809 156.407 11.7737 156.359 11.9642C156.276 12.2618 156.192 12.5713 156.085 12.857C155.491 14.5832 154.301 15.8094 152.766 16.7856C152.599 16.8928 152.35 17.0594 152.35 17.2499C152.754 17.1309 153.551 16.7737 153.92 16.7737C155.205 16.7737 155.717 15.0951 156.038 14.0713Z" fill="#2B2A29"/>
<path d="M153.824 13.6667C154.181 13.119 154.467 12.1667 154.526 11.5C154.455 11.5119 154.384 11.6071 154.312 11.8095C153.967 12.7381 152.433 13.3214 151.516 13.6071C149.482 14.2262 146.603 14.5714 144.259 14.5714C143.521 14.5714 142.843 14.5357 142.248 14.4643C141.368 14.3571 139.631 14.0476 139.679 12.881C139.69 12.7024 139.655 12.619 139.56 12.5952C139.441 13.1429 139.298 13.7976 139.298 14.4048C139.298 14.6667 139.334 14.9286 139.393 15.1548C139.809 16.6667 142.118 16.6429 143.379 16.6429C145.818 16.631 152.373 15.9048 153.824 13.6667Z" fill="#2B2A29"/>
<path d="M148.091 7.92847C147.698 8.40466 147.353 8.84513 146.901 9.41656C146.77 8.97609 146.092 8.70228 145.711 8.54751C145.271 9.09513 144.902 9.55942 144.379 10.238C144.807 10.3451 145.283 10.6428 145.557 10.9047C146.056 10.9047 146.842 10.1785 146.925 9.66656C147.306 9.79751 147.698 10.0475 147.924 10.2737C148.46 10.2737 149.185 9.48799 149.185 8.95228C149.185 8.42847 148.626 8.13085 148.091 7.92847Z" fill="#2B2A29"/>
<path d="M139.738 4.08341C139.572 4.39294 139.358 4.76199 139.132 5.20246C138.775 5.94056 138.596 6.61913 138.596 7.51199C138.608 8.84532 138.596 12.0239 138.037 13.1787C138.965 12.6787 139.393 10.4525 139.477 9.50008C139.619 7.96437 139.548 5.45246 140.048 4.08341C140.179 3.72627 140.191 3.50008 140.095 3.41675C139.976 3.63103 139.857 3.85722 139.738 4.08341Z" fill="#2B2A29"/>
<path d="M136.609 14.0713C136.811 13.4047 136.99 12.6309 137.168 11.7975C137.192 11.6547 137.228 11.5118 137.311 11.3809C137.085 11.3809 136.978 11.7737 136.93 11.9642C136.847 12.2618 136.764 12.5713 136.657 12.857C136.062 14.5832 134.872 15.8094 133.337 16.7856C133.171 16.8928 132.921 17.0594 132.921 17.2499C133.325 17.1309 134.123 16.7737 134.491 16.7737C135.776 16.7737 136.288 15.0951 136.609 14.0713Z" fill="#2B2A29"/>
<path d="M135.218 5.75C134.825 6.22619 134.48 6.66667 134.028 7.2381C133.897 6.79762 133.219 6.52381 132.838 6.36905C132.398 6.91667 132.029 7.38095 131.506 8.05952C131.934 8.16667 132.41 8.46429 132.684 8.72619C133.183 8.72619 133.969 8 134.052 7.4881C134.433 7.61905 134.825 7.86905 135.051 8.09524C135.587 8.09524 136.312 7.30952 136.312 6.77381C136.312 6.25 135.753 5.95238 135.218 5.75Z" fill="#2B2A29"/>
<path d="M131.363 15.2737C131.541 15.0118 131.827 14.6546 132.279 14.6427C132.421 14.6427 132.505 14.7023 132.636 14.7023C133.73 14.7023 134.254 12.7856 134.254 11.9761C133.909 11.9761 133.944 13.1308 133.361 13.1308C133.135 13.1308 132.993 13.0713 132.79 13.0713C132.195 13.0713 131.839 13.7618 131.458 14.0951C131.137 14.3808 130.661 14.5594 130.185 14.5594C128.924 14.5713 128.519 13.4166 128.519 12.3213C128.067 12.1666 127.793 12.607 127.698 13.6189C127.698 15.7975 128.519 16.6427 129.471 16.6427C130.339 16.6427 130.922 15.9285 131.363 15.2737Z" fill="#2B2A29"/>
<path d="M129.804 18.262C129.376 18.7977 129.043 19.2262 128.52 19.9048C129.103 20.0477 129.721 20.5358 129.947 20.8215C130.34 20.5596 130.935 19.8929 130.935 19.3691C130.935 18.8334 130.399 18.4882 129.804 18.262Z" fill="#2B2A29"/>
<path d="M127.698 13.619C128.174 13.5237 128.448 13.107 128.519 12.3213C128.519 10.6428 128.793 8.738 128.995 7.03562C129.055 6.64276 129.007 6.42848 128.9 6.38086C128.686 7.2261 128.495 7.738 128.222 8.38086C128.15 8.53562 128.115 8.74991 128.079 9.01181C127.9 10.5356 127.698 12.0713 127.698 13.619Z" fill="#2B2A29"/>
<path d="M124.926 15.238C125.7 14.4404 126.509 13.1428 126.509 11.988C126.509 11.5356 126.366 11.107 125.819 11.107C124.926 11.107 123.974 12.357 123.475 13.0356C123.725 12.3213 123.856 11.5118 123.903 11.0356C124.022 9.66657 123.963 7.67848 124.415 6.4761C124.522 6.16657 124.534 5.95229 124.462 5.88086C124.165 6.39276 123.867 6.94038 123.606 7.46419C123.273 8.11895 123.118 8.7261 123.118 9.51181C123.118 10.5594 123.308 13.119 122.82 13.9404C122.69 14.1547 122.535 14.369 122.404 14.5832C121.202 14.3213 121.095 13.2737 121.095 12.3213L120.274 13.619C120.274 14.9404 120.5 16.6428 122.059 16.6428C123.225 16.6428 124.177 16.0118 124.926 15.238ZM122.666 14.619C123.582 13.2618 124.224 12.4404 125.01 12.4404C125.438 12.4404 125.735 12.6428 125.914 12.9404C125.307 14.1428 123.832 14.8213 122.666 14.619Z" fill="#2B2A29"/>
<path d="M120.274 13.619C120.75 13.5237 121.024 13.107 121.095 12.3213C121.095 10.6428 121.369 8.738 121.571 7.03562C121.631 6.64276 121.583 6.42848 121.476 6.38086C121.262 7.2261 121.072 7.738 120.798 8.38086C120.727 8.53562 120.691 8.74991 120.655 9.01181C120.477 10.5356 120.274 12.0713 120.274 13.619Z" fill="#2B2A29"/>
<path d="M118.62 13.6667C118.977 13.119 119.263 12.1667 119.322 11.5C119.251 11.5119 119.18 11.6071 119.108 11.8095C118.763 12.7381 117.228 13.3214 116.312 13.6071C114.278 14.2262 111.399 14.5714 109.055 14.5714C108.317 14.5714 107.639 14.5357 107.044 14.4643C106.164 14.3571 104.427 14.0476 104.474 12.881C104.486 12.7024 104.451 12.619 104.355 12.5952C104.237 13.1429 104.094 13.7976 104.094 14.4048C104.094 14.6667 104.129 14.9286 104.189 15.1548C104.605 16.6667 106.913 16.6429 108.175 16.6429C110.613 16.631 117.169 15.9048 118.62 13.6667Z" fill="#2B2A29"/>
<path d="M112.886 7.92847C112.493 8.40466 112.148 8.84513 111.696 9.41656C111.565 8.97609 110.887 8.70228 110.506 8.54751C110.066 9.09513 109.697 9.55942 109.174 10.238C109.602 10.3451 110.078 10.6428 110.352 10.9047C110.851 10.9047 111.637 10.1785 111.72 9.66656C112.101 9.79751 112.493 10.0475 112.719 10.2737C113.255 10.2737 113.98 9.48799 113.98 8.95228C113.98 8.42847 113.421 8.13085 112.886 7.92847Z" fill="#2B2A29"/>
<path d="M102.31 11.6785C102.666 11.4999 103.63 10.9523 104.32 10.9285C104.439 10.9285 104.641 10.8927 104.808 10.7499C105.546 10.1308 106.045 8.5356 106.129 7.55941C106.176 6.91655 105.998 5.70227 105.165 5.64274C104.844 5.61893 104.522 5.79751 104.344 6.09512C103.963 6.91655 103.951 6.94036 103.487 7.7856C103.321 8.09512 103.499 8.5237 103.785 8.76179C104.177 9.10703 104.867 9.04751 105.32 8.85703C105.129 9.61893 103.678 10.4642 103.047 10.8689C102.785 11.0594 102.357 11.3332 102.31 11.6785Z" fill="#2B2A29"/>
<path d="M99.6567 9.44043C99.3593 9.44043 99.1332 9.57138 98.9905 9.88091C98.5503 10.8928 98.6692 10.619 98.1458 11.488C97.6342 12.4285 98.7763 13.0476 99.6091 12.5833C99.8709 12.6428 100.085 12.8452 100.097 13.1666C99.8828 13.6428 99.1808 13.7619 98.7644 13.5119C98.4194 13.9761 98.3599 14.488 98.9667 15.0833C99.2284 15.0833 99.4783 14.9285 99.7043 14.6904C100.442 13.9047 100.906 12.5119 100.906 11.4523C100.906 10.6904 100.632 9.44043 99.6567 9.44043Z" fill="#2B2A29"/>
<path d="M100.572 2.96436C100.144 3.50007 99.8106 3.92864 99.2871 4.60721C99.8701 4.75007 100.489 5.23817 100.715 5.52388C101.107 5.26197 101.702 4.59531 101.702 4.0715C101.702 3.53578 101.167 3.19055 100.572 2.96436Z" fill="#2B2A29"/>
<path d="M98.966 15.0834C99.3229 14.4644 99.1325 13.7263 98.7637 13.512C98.2997 13.512 98.1331 13.8453 97.8238 14.1072C97.455 14.4049 97.0505 14.5001 96.6936 14.512C95.1588 14.512 95.1588 12.8453 95.1588 12.3215C94.8852 12.7501 94.6115 13.1787 94.3379 13.6192C94.3379 14.7382 94.4807 16.6311 95.9678 16.6311C96.753 16.6311 97.2051 15.9882 97.6572 15.3572C97.8357 15.1192 98.038 14.9763 98.2759 14.9763C98.5376 14.9763 98.6685 15.0834 98.966 15.0834Z" fill="#2B2A29"/>
<path d="M97.6697 4.20239C97.2414 4.73811 96.9082 5.16668 96.3848 5.84525C96.9677 5.98811 97.5864 6.4762 97.8124 6.76192C98.2051 6.50001 98.7999 5.83335 98.7999 5.30954C98.7999 4.77382 98.2645 4.42858 97.6697 4.20239Z" fill="#2B2A29"/>
<path d="M94.3379 13.619C94.8138 13.5237 95.0874 13.107 95.1588 12.3213C95.1588 10.6428 95.4324 8.738 95.6347 7.03562C95.6942 6.64276 95.6466 6.42848 95.5395 6.38086C95.3254 7.2261 95.135 7.738 94.8614 8.38086C94.79 8.53562 94.7543 8.74991 94.7186 9.01181C94.5401 10.5356 94.3379 12.0713 94.3379 13.619Z" fill="#2B2A29"/>
<path d="M98.8648 1.19043C98.8648 1.83329 98.3176 2.64281 97.5799 2.64281C97.2706 2.94043 96.9732 3.09519 96.6757 3.09519C96.3783 3.09519 96.2236 2.95233 96.2236 2.67852C96.2236 2.51186 96.3069 2.28567 96.4616 2.01186C96.4973 2.01186 96.5092 2.05948 96.5449 2.119C96.6043 2.24995 96.7352 2.29757 96.9018 2.29757C97.223 2.29757 97.5085 2.1071 97.7346 1.78567C97.7822 1.72614 97.8298 1.69043 97.8774 1.69043C97.9487 1.77376 98.0439 1.80948 98.1629 1.80948C98.377 1.80948 98.5674 1.619 98.734 1.28567C98.7697 1.22614 98.8173 1.19043 98.8648 1.19043Z" fill="#2B2A29"/>
<path d="M89.5557 17.238C89.9126 17.0595 90.8763 16.5118 91.5663 16.488C91.6853 16.488 91.8875 16.4523 92.0541 16.3095C92.7917 15.6904 93.2914 14.0952 93.3747 13.119C93.4223 12.4761 93.2438 11.2618 92.411 11.2023C92.0898 11.1785 91.7686 11.3571 91.5901 11.6547C91.2094 12.4761 91.1975 12.4999 90.7335 13.3452C90.5669 13.6547 90.7454 14.0833 91.0309 14.3214C91.4235 14.6666 92.1136 14.6071 92.5657 14.4166C92.3753 15.1785 90.9239 16.0237 90.2933 16.4285C90.0316 16.619 89.6033 16.8928 89.5557 17.238Z" fill="#2B2A29"/>
<path d="M88.8532 14.0713C89.0555 13.4047 89.2339 12.6309 89.4124 11.7975C89.4362 11.6547 89.4719 11.5118 89.5552 11.3809C89.3291 11.3809 89.222 11.7737 89.1744 11.9642C89.0912 12.2618 89.0079 12.5713 88.9008 12.857C88.3059 14.5832 87.1162 15.8094 85.5814 16.7856C85.4149 16.8928 85.165 17.0594 85.165 17.2499C85.5695 17.1309 86.3667 16.7737 86.7355 16.7737C88.0204 16.7737 88.532 15.0951 88.8532 14.0713Z" fill="#2B2A29"/>
<path d="M78.8718 22C81.4059 22 83.9638 18.4047 83.9638 15.9405C83.9638 15.2976 83.7735 15.0119 83.1191 14.9047C82.548 14.8095 82.1792 14.5833 82.1792 14.1905C82.1792 13.1785 84.4159 11.3214 85.4867 11.3214C85.57 11.3214 85.6651 11.3333 85.7484 11.3452C86.1291 11.119 86.7716 10.0119 86.7835 9.5476C86.7835 9.36902 86.7002 9.34521 86.5217 9.34521C86.3195 9.34521 86.0815 9.41664 85.8198 9.52379C83.8805 10.369 81.275 13.3928 81.2512 15.6309C81.2512 16.3928 81.62 17.0119 82.7384 17.2143C83.012 17.2738 83.2738 17.4047 83.1905 17.7381C82.4767 18.9881 80.9062 19.8928 79.4666 19.869C78.0746 19.8452 77.2775 18.8095 77.2775 17.5595C77.2775 15.9643 78.2055 13.9881 79.0621 12.5C79.2049 12.25 79.5975 11.5833 79.4428 11.3452C78.2293 13.4047 76.29 16.4047 76.29 18.9762C76.29 20.5595 76.9682 22 78.8718 22Z" fill="#2B2A29"/>
<path d="M79.4191 3.24992C79.2525 3.55944 79.0384 3.92849 78.8123 4.36897C78.4554 5.10706 78.2769 5.78563 78.2769 6.67849C78.2888 8.01182 78.2769 11.1904 77.7178 12.3452C78.6458 11.8452 79.0741 9.61897 79.1574 8.66659C79.3001 7.13087 79.2287 4.61897 79.7284 3.24992C79.8593 2.89278 79.8712 2.66659 79.776 2.58325C79.657 2.79754 79.5381 3.02373 79.4191 3.24992Z" fill="#2B2A29"/>
<path d="M75.6001 12.3928C76.3734 11.5952 77.1824 10.2975 77.1824 9.14279C77.1824 8.69041 77.0397 8.26183 76.4924 8.26183C75.6001 8.26183 74.6483 9.51183 74.1486 10.1904C74.3985 9.47612 74.5293 8.6666 74.5769 8.19041C74.6959 6.82136 74.6364 4.83326 75.0885 3.63088C75.1956 3.32136 75.2075 3.10707 75.1361 3.03564C74.8387 3.54755 74.5412 4.09517 74.2795 4.61898C73.9464 5.27374 73.7917 5.88088 73.7917 6.6666C73.7917 7.71422 73.9821 10.2737 73.4943 11.0952C73.3634 11.3095 73.2087 11.5237 73.0779 11.738C71.8762 11.4761 71.7692 10.4285 71.7692 9.47612L70.9482 10.7737C70.9482 12.0952 71.1743 13.7975 72.7328 13.7975C73.8988 13.7975 74.8506 13.1666 75.6001 12.3928ZM73.3396 11.7737C74.2557 10.4166 74.8982 9.59517 75.6834 9.59517C76.1117 9.59517 76.4091 9.79755 76.5876 10.0952C75.9808 11.2975 74.5055 11.9761 73.3396 11.7737Z" fill="#2B2A29"/>
<path d="M70.948 10.7738C70.948 12.7619 70.484 15.2024 68.1164 15.5477C68.9016 14.131 69.0563 12.4286 69.1515 10.8334C69.2229 9.52384 69.2467 7.9048 69.6036 6.94051C69.7107 6.61908 69.7226 6.4167 69.6512 6.34527C69.5322 6.53575 69.4251 6.73813 69.3181 6.94051C69.1753 7.20242 68.9849 7.53575 68.7946 7.92861C68.4614 8.58337 68.3068 9.19051 68.3187 9.97623C68.3187 11.3691 68.3068 14.4167 67.7119 15.6191C67.7119 16.3929 68.0807 16.7619 68.5566 16.7619C70.02 16.7619 71.067 14.1548 71.3406 13.0119C71.4715 12.381 71.3406 11.6429 70.948 10.7738C71.4239 10.7857 71.6975 10.3453 71.7689 9.47623C71.7689 8.28575 71.8165 6.82146 72.221 5.71432C72.34 5.39289 72.3519 5.19051 72.2686 5.10718C72.1615 5.30956 72.0544 5.51194 71.9355 5.71432C70.9599 7.54765 70.9361 8.21432 70.948 9.86908C70.948 10.1429 70.948 10.4405 70.948 10.7738Z" fill="#2B2A29"/>
<path d="M75.0406 0C75.0406 0.642857 74.4933 1.45238 73.7557 1.45238C73.4464 1.75 73.1489 1.90476 72.8515 1.90476C72.5541 1.90476 72.3994 1.7619 72.3994 1.4881C72.3994 1.32143 72.4827 1.09524 72.6374 0.821429C72.6731 0.821429 72.685 0.869048 72.7206 0.928571C72.7801 1.05952 72.911 1.10714 73.0776 1.10714C73.3988 1.10714 73.6843 0.916667 73.9104 0.595238C73.958 0.535714 74.0056 0.5 74.0531 0.5C74.1245 0.583333 74.2197 0.619048 74.3387 0.619048C74.5528 0.619048 74.7432 0.428571 74.9098 0.0952381C74.9454 0.0357143 74.993 0 75.0406 0Z" fill="#2B2A29"/>
<path d="M63.1913 14.4285C62.2157 14.2381 62.0016 13.2262 62.0016 12.3214L61.1807 13.619C61.1807 15.0357 61.4543 16.6428 62.9534 16.6428C64.964 16.6428 66.4869 14.2619 66.9509 12.5C66.9747 12.4285 67.0223 12.2143 66.8914 12.2143C66.701 12.619 66.0705 13.6785 65.6898 13.8571C65.0949 13.8928 64.2859 13.619 64.2859 12.9404C64.2859 12.1785 65.0354 11.8333 65.7017 11.8333C65.9872 11.8333 66.5583 11.9762 66.5583 11.5714C66.5583 11.1666 66.0586 10.8928 65.6898 10.8928C64.3691 10.8928 63.4412 13.369 63.1913 14.4285Z" fill="#2B2A29"/>
<path d="M61.1807 13.619C61.6566 13.5237 61.9302 13.107 62.0016 12.3213C62.0016 10.6428 62.2752 8.738 62.4775 7.03562C62.537 6.64276 62.4894 6.42848 62.3823 6.38086C62.1681 7.2261 61.9778 7.738 61.7041 8.38086C61.6328 8.53562 61.5971 8.74991 61.5614 9.01181C61.3829 10.5356 61.1807 12.0713 61.1807 13.619Z" fill="#2B2A29"/>
<path d="M63.7504 4.78576C64.0717 4.131 64.2263 3.80957 64.2263 3.80957C64.4643 3.85719 64.607 4.03576 64.607 4.27386C64.607 4.67862 63.8218 6.15481 63.6077 6.61909C63.5244 6.52386 63.5958 6.36909 63.6434 6.27386C63.8218 5.881 64.3215 5.07148 63.7504 4.78576Z" fill="#2B2A29"/>
<path d="M59.5266 13.6667C59.8836 13.119 60.1691 12.1667 60.2286 11.5C60.1572 11.5119 60.0858 11.6071 60.0144 11.8095C59.6694 12.7381 58.1347 13.3214 57.2186 13.6071C55.1841 14.2262 52.305 14.5714 49.9612 14.5714C49.2236 14.5714 48.5454 14.5357 47.9505 14.4643C47.0701 14.3571 45.3331 14.0476 45.3807 12.881C45.3926 12.7024 45.3569 12.619 45.2617 12.5952C45.1428 13.1429 45 13.7976 45 14.4048C45 14.6667 45.0357 14.9286 45.0952 15.1548C45.5116 16.6667 47.8197 16.6429 49.0808 16.6429C51.5197 16.631 58.0752 15.9048 59.5266 13.6667Z" fill="#2B2A29"/>
<path d="M53.792 7.92847C53.3994 8.40466 53.0544 8.84513 52.6023 9.41656C52.4714 8.97609 51.7933 8.70228 51.4126 8.54751C50.9724 9.09513 50.6036 9.55942 50.0801 10.238C50.5084 10.3451 50.9843 10.6428 51.2579 10.9047C51.7576 10.9047 52.5428 10.1785 52.6261 9.66656C53.0068 9.79751 53.3994 10.0475 53.6255 10.2737C54.1609 10.2737 54.8866 9.48799 54.8866 8.95228C54.8866 8.42847 54.3274 8.13085 53.792 7.92847Z" fill="#2B2A29"/>
</g>
<g clip-path="url(#clip1_249_5453)">
<path d="M162.563 43.8023C162.058 44.3517 161.48 44.5252 160.932 44.5396C159.401 44.5541 159.069 43.2384 159.069 41.8794C158.405 42.9204 158.073 43.4553 158.073 43.4553C158.073 45.0746 158.362 47.1276 160.224 47.1276C161.769 47.1276 162.159 45.089 163.01 45.089C163.155 45.089 163.328 45.1613 163.487 45.1613C164.468 45.1613 164.988 44.2939 165.565 43.4264C166.72 43.4264 167.023 41.2288 167.023 40.3613C166.908 40.3758 166.778 40.5493 166.735 40.7517C166.663 41.2433 166.489 41.8071 166.1 41.8071C165.941 41.8071 165.825 41.7637 165.739 41.677C165.652 41.677 165.609 41.8216 165.537 41.9951C165.349 42.3999 164.844 43.2529 164.411 43.2529C164.208 43.2095 163.92 43.1228 163.732 43.1228C163.256 43.1228 162.88 43.4553 162.563 43.8023Z" fill="#2B57AE"/>
<path d="M158.073 43.4554C158.651 43.3397 158.983 42.8337 159.069 41.8795C159.069 39.8409 159.401 37.5277 159.647 35.4602C159.719 34.9831 159.661 34.7229 159.531 34.665C159.271 35.6915 159.04 36.3132 158.708 37.094C158.622 37.2819 158.578 37.5421 158.535 37.8602C158.319 39.7108 158.073 41.5759 158.073 43.4554Z" fill="#2B57AE"/>
<path d="M155.778 44.0048C156.023 43.1951 156.24 42.2554 156.456 41.2433C156.485 41.0698 156.529 40.8963 156.63 40.7373C156.355 40.7373 156.225 41.2144 156.168 41.4457C156.067 41.8072 155.966 42.1831 155.836 42.5301C155.114 44.6265 153.67 46.1156 151.808 47.3012C151.606 47.4313 151.303 47.6337 151.303 47.865C151.794 47.7204 152.761 47.2867 153.208 47.2867C154.767 47.2867 155.388 45.2481 155.778 44.0048Z" fill="#2B57AE"/>
<path d="M156.586 34.9253C156.067 35.5759 155.663 36.0964 155.027 36.9205C155.735 37.094 156.485 37.6867 156.76 38.0337C157.236 37.7157 157.958 36.906 157.958 36.2699C157.958 35.6193 157.308 35.2 156.586 34.9253Z" fill="#2B57AE"/>
<path d="M150.495 43.9035C149.932 43.8023 149.686 43.1517 149.686 41.8794C149.022 42.9204 148.69 43.4553 148.69 43.4553C148.69 44.1348 148.618 46.5059 149.975 46.4914C151.13 46.4914 152.169 44.8866 152.169 43.8457C152.169 43.1372 151.794 42.6746 151.058 42.4722C150.87 42.9493 150.682 43.4264 150.495 43.9035Z" fill="#2B57AE"/>
<path d="M148.689 43.4554C149.267 43.3397 149.599 42.8337 149.686 41.8795C149.686 39.8409 150.018 37.5277 150.263 35.4602C150.335 34.9831 150.277 34.7229 150.147 34.665C149.888 35.6915 149.657 36.3132 149.325 37.094C149.238 37.2819 149.195 37.5421 149.151 37.8602C148.935 39.7108 148.689 41.5759 148.689 43.4554Z" fill="#2B57AE"/>
<path d="M147.087 38.9446C146.582 40.0723 146.307 40.6506 146.307 40.6506C146.091 41.0699 146.076 41.7783 146.177 42.7325C146.74 48.1687 142.742 51.0892 139.609 51.0892C136.967 51.0892 135.769 49.3398 136.231 46.7663C136.448 45.5373 136.924 44.641 137.444 43.5711C137.588 43.2675 137.617 43.0651 137.545 42.9494C137.545 42.9494 137.444 43.1518 137.227 43.5277C136.116 45.3205 135.148 47.4169 135.148 49.5566C135.148 51.7253 136.159 53.6337 138.541 53.6337C142.799 53.6193 145.643 49.5422 146.654 45.812C147.116 44.1349 147.174 42.2988 147.087 40.1735C147.072 39.7831 147.13 39.2193 147.246 38.8145C147.188 38.8145 147.13 38.8578 147.087 38.9446Z" fill="#2B57AE"/>
<path d="M141.096 43.6145C140.115 45.0747 139.624 45.7976 139.624 45.7976C140.432 46.1591 141.082 46.6073 141.558 47.1278C142.035 47.0121 142.915 45.8121 142.915 45.147C142.915 44.7278 142.006 44.0193 141.096 43.6145Z" fill="#2B57AE"/>
<path d="M141.919 22C141.443 22.5783 141.024 23.1133 140.475 23.8072C140.317 23.2723 139.494 22.9398 139.032 22.7518C138.498 23.4169 138.05 23.9807 137.415 24.8048C137.935 24.9349 138.512 25.2964 138.844 25.6145C139.45 25.6145 140.403 24.7325 140.504 24.1108C140.966 24.2699 141.443 24.5735 141.717 24.8482C142.367 24.8482 143.247 23.894 143.247 23.2434C143.247 22.6072 142.569 22.2458 141.919 22Z" fill="#2B57AE"/>
<path d="M133.532 39.3061C135.351 38.9881 136.564 38.323 137.387 37.2242C137.618 36.9495 137.849 36.7616 138.094 36.7616C138.441 36.7616 138.715 37.0363 139.032 37.0363C139.696 37.0363 140.288 36.0098 140.49 34.911C140.563 34.6073 140.591 34.217 140.664 33.9278C140.519 33.9134 140.418 34.1736 140.361 34.3182C140.274 34.6218 140.144 35.3591 139.711 35.3591C139.35 35.3591 139.133 35.1134 138.787 35.1134C138.224 35.1134 137.834 35.576 137.473 36.082C136.838 36.9784 135.322 38.1061 134.269 38.3519C133.518 38.3519 133.143 38.7857 133.143 39.3206C133.215 39.3351 133.374 39.3206 133.532 39.3061Z" fill="#2B57AE"/>
<path d="M136.203 25.5854C135.683 26.2361 135.279 26.7565 134.644 27.5806C135.351 27.7541 136.102 28.3469 136.376 28.6939C136.852 28.3758 137.574 27.5662 137.574 26.93C137.574 26.2794 136.924 25.8601 136.203 25.5854Z" fill="#2B57AE"/>
<path d="M132.291 24.6602C131.771 25.3108 131.367 25.8312 130.731 26.6553C131.439 26.8288 132.189 27.4216 132.464 27.7686C132.94 27.4505 133.662 26.6409 133.662 26.0047C133.662 25.3541 133.012 24.9349 132.291 24.6602Z" fill="#2B57AE"/>
<path d="M131.237 39.7109C131.612 39.1615 131.684 38.482 131.468 37.6868C131.295 37.629 131.15 37.5567 131.064 37.3688C130.862 37.3254 130.717 37.2965 130.573 37.2965C129.562 37.2965 128.321 38.0772 127.556 38.67C125.91 39.8989 125.203 41.1133 124.38 42.9928C124.928 42.8338 125.506 42.1109 126.069 40.8675C126.747 39.9422 128.191 39.1181 129.375 39.1037C130.082 39.0892 130.053 39.7254 131.237 39.7109ZM134.759 38.0049C135.669 37.0507 136.506 35.576 136.506 34.4772C136.506 33.9422 136.289 33.4651 135.654 33.4651C134.759 33.4651 133.503 34.8675 132.594 36.0965C132.984 35.0844 133.099 34.029 133.171 32.9591C133.258 31.4844 133.272 29.9085 133.734 28.6362C133.879 28.2603 133.893 28.0001 133.792 27.9133C133.431 28.535 133.07 29.2001 132.753 29.8362C132.348 30.6459 132.175 31.3688 132.175 32.323C132.175 33.6097 132.392 36.1832 131.8 37.1808C131.699 37.3543 131.583 37.5133 131.468 37.6868C131.107 38.3085 131.02 38.988 131.237 39.7109C132.724 39.682 133.792 39.0459 134.759 38.0049ZM131.757 37.7591C132.753 36.27 133.72 35.0989 134.673 35.0989C135.135 35.0989 135.51 35.3013 135.741 35.7061C135.062 36.6892 133.72 37.9615 131.757 37.7591Z" fill="#2B57AE"/>
<path d="M129.75 48.3567C129.274 48.935 128.855 49.4699 128.307 50.1639C128.148 49.629 127.325 49.2964 126.863 49.1085C126.329 49.7736 125.881 50.3374 125.246 51.1615C125.766 51.2916 126.343 51.6531 126.675 51.9711C127.282 51.9711 128.234 51.0892 128.335 50.4675C128.797 50.6266 129.274 50.9302 129.548 51.2049C130.198 51.2049 131.078 50.2507 131.078 49.6001C131.078 48.9639 130.4 48.6025 129.75 48.3567Z" fill="#2B57AE"/>
<path d="M124.38 42.9928C122.994 43.629 122.099 44.482 121.449 45.4507C119.183 48.8338 119.457 54.2266 119.659 57.9278C119.832 60.8483 120.02 62.8724 120.179 64.0001C120.352 63.87 120.323 63.335 120.338 63.1615C120.208 59.6194 120.15 55.8169 120.294 52.3471C120.367 50.5832 120.525 48.9784 121.045 47.2724C121.651 45.4073 124.091 44.6989 125.823 44.3519C126.415 44.2507 127.123 44.0483 127.527 43.6001C127.931 43.1519 128.162 42.6314 128.35 42.1254C128.667 41.2434 126.762 40.7519 126.069 40.8675C125.592 40.8675 124.813 42.0386 124.38 42.9928Z" fill="#2B57AE"/>
<path d="M121.074 38.1638C120.092 38.1349 118.75 41.0843 117.104 41.5325C115.949 41.5325 115.747 41.9662 115.747 42.8337C117.609 42.8337 118.432 41.5325 119.688 40.2747C119.962 40.0144 120.266 39.8554 120.554 39.8554C120.93 39.8554 121.161 40.1156 121.507 40.2024C121.94 40.318 122.388 40.0867 122.777 39.4361C123.138 38.8 123.167 38.2361 122.676 37.7012C122.272 37.2674 121.998 36.9349 121.897 36.6458C121.579 37.0795 121.175 37.7156 121.074 38.1638Z" fill="#2B57AE"/>
<path d="M115.747 42.8337C116.368 42.6891 117.104 42.0819 117.104 41.5325C117.826 40.6361 118.259 37.7734 116.729 37.7734C115.372 37.7734 113.192 41.1566 113.77 42.3566C110.32 44.3084 108.703 48.3855 105.166 50.3518C104.978 50.4674 104.834 50.5975 104.762 50.7421C105.989 50.7421 107.173 49.918 108.183 48.9638C109.526 47.6771 110.204 46.7662 111.041 45.9277C111.864 45.118 112.846 44.4963 114.751 43.5999C115.329 43.3397 115.906 42.9638 116.022 42.8192C115.921 42.8048 115.848 42.8192 115.747 42.8337ZM115.805 41.4024C115.285 41.2722 114.78 40.9108 114.636 40.3758C115.098 39.1758 116.758 38.7999 117.032 40.506C116.83 40.8674 116.123 41.3156 115.805 41.4024Z" fill="#2B57AE"/>
<path d="M117.754 29.8218C117.278 30.4001 116.859 30.935 116.31 31.629C116.152 31.0941 115.329 30.7615 114.867 30.5736C114.333 31.2386 113.885 31.8025 113.25 32.6266C113.77 32.7567 114.347 33.1182 114.679 33.4362C115.285 33.4362 116.238 32.5543 116.339 31.9326C116.801 32.0917 117.278 32.3953 117.552 32.67C118.202 32.67 119.082 31.7158 119.082 31.0652C119.082 30.429 118.404 30.0676 117.754 29.8218Z" fill="#2B57AE"/>
<path d="M107.663 44.0048C107.908 43.1951 108.125 42.2554 108.341 41.2433C108.37 41.0698 108.413 40.8963 108.514 40.7373C108.24 40.7373 108.11 41.2144 108.052 41.4457C107.951 41.8072 107.85 42.1831 107.72 42.5301C106.999 44.6265 105.555 46.1156 103.693 47.3012C103.491 47.4313 103.188 47.6337 103.188 47.865C103.678 47.7204 104.646 47.2867 105.093 47.2867C106.652 47.2867 107.273 45.2481 107.663 44.0048Z" fill="#2B57AE"/>
<path d="M103.736 36.0819C103.534 36.4578 103.274 36.906 103 37.4409C102.567 38.3373 102.35 39.1614 102.35 40.2457C102.365 41.865 102.35 45.7252 101.672 47.1276C102.798 46.5204 103.318 43.8168 103.419 42.6602C103.592 40.7951 103.505 37.7445 104.112 36.0819C104.27 35.6481 104.285 35.3734 104.169 35.2722C104.025 35.5325 103.881 35.8072 103.736 36.0819Z" fill="#2B57AE"/>
<path d="M100.07 43.5132C100.503 42.8481 100.849 41.6915 100.921 40.8818C100.835 40.8963 100.748 41.012 100.661 41.2577C100.243 42.3855 98.3806 43.0939 97.269 43.4409C94.8005 44.1927 91.307 44.612 88.4631 44.612C87.5681 44.612 86.7453 44.5686 86.0235 44.4818C84.9552 44.3517 82.8476 43.9758 82.9053 42.5589C82.9197 42.3421 82.8764 42.2409 82.7609 42.212C82.6166 42.877 82.4434 43.6722 82.4434 44.4095C82.4434 44.7276 82.4867 45.0457 82.5588 45.3204C83.0641 47.1565 85.8647 47.1276 87.3949 47.1276C90.3542 47.1132 98.3084 46.2312 100.07 43.5132Z" fill="#2B57AE"/>
<path d="M93.1114 36.5447C92.635 37.123 92.2164 37.6579 91.6678 38.3519C91.509 37.817 90.6862 37.4844 90.2242 37.2965C89.6901 37.9615 89.2426 38.5254 88.6074 39.3495C89.1271 39.4796 89.7045 39.8411 90.0366 40.1591C90.6429 40.1591 91.5957 39.2772 91.6967 38.6555C92.1587 38.8146 92.635 39.1182 92.9093 39.3929C93.5589 39.3929 94.4395 38.4387 94.4395 37.7881C94.4395 37.1519 93.761 36.7905 93.1114 36.5447Z" fill="#2B57AE"/>
<path d="M74.8213 47.8505C75.2544 47.6336 76.4237 46.9686 77.261 46.9397C77.4053 46.9397 77.6507 46.8963 77.8528 46.7228C78.7479 45.971 79.3542 44.0336 79.4552 42.8481C79.513 42.0674 79.2964 40.5927 78.2859 40.5204C77.8961 40.4915 77.5064 40.7083 77.2898 41.0698C76.8279 42.0674 76.8134 42.0963 76.2504 43.1228C76.0483 43.4987 76.2649 44.0192 76.6113 44.3083C77.0877 44.7276 77.925 44.6553 78.4736 44.424C78.2426 45.3493 76.4814 46.3758 75.7163 46.8674C75.3987 47.0987 74.879 47.4312 74.8213 47.8505Z" fill="#2B57AE"/>
<path d="M72.5839 36.0819C72.3818 36.4578 72.1219 36.906 71.8476 37.4409C71.4146 38.3373 71.198 39.1614 71.198 40.2457C71.2125 41.865 71.198 45.7252 70.5195 47.1276C71.6455 46.5204 72.1652 43.8168 72.2663 42.6602C72.4395 40.7951 72.3529 37.7445 72.9592 36.0819C73.118 35.6481 73.1324 35.3734 73.0169 35.2722C72.8726 35.5325 72.7282 35.8072 72.5839 36.0819Z" fill="#2B57AE"/>
<path d="M68.9165 44.0048C69.1619 43.1951 69.3785 42.2554 69.595 41.2433C69.6239 41.0698 69.6672 40.8963 69.7682 40.7373C69.494 40.7373 69.364 41.2144 69.3063 41.4457C69.2053 41.8072 69.1042 42.1831 68.9743 42.5301C68.2525 44.6265 66.8089 46.1156 64.9467 47.3012C64.7446 47.4313 64.4414 47.6337 64.4414 47.865C64.9322 47.7204 65.8994 47.2867 66.3469 47.2867C67.906 47.2867 68.5268 45.2481 68.9165 44.0048Z" fill="#2B57AE"/>
<path d="M66.1739 34.5928C65.6975 35.1711 65.2789 35.706 64.7303 36.4C64.5715 35.8651 63.7487 35.5325 63.2867 35.3446C62.7526 36.0096 62.3051 36.5735 61.6699 37.3976C62.1896 37.5277 62.767 37.8892 63.0991 38.2072C63.7054 38.2072 64.6582 37.3253 64.7592 36.7036C65.2212 36.8627 65.6975 37.1663 65.9718 37.441C66.6214 37.441 67.502 36.4867 67.502 35.8361C67.502 35.2 66.8235 34.8386 66.1739 34.5928Z" fill="#2B57AE"/>
<path d="M62.1894 45.465C62.406 45.147 62.7524 44.7132 63.301 44.6988C63.4742 44.6988 63.5753 44.771 63.7341 44.771C65.0622 44.771 65.6973 42.4433 65.6973 41.4602C65.2787 41.4602 65.322 42.8626 64.6146 42.8626C64.3404 42.8626 64.1671 42.7903 63.9217 42.7903C63.1999 42.7903 62.7669 43.6289 62.3049 44.0337C61.9151 44.3807 61.3377 44.5976 60.7603 44.5976C59.2301 44.612 58.7392 43.2096 58.7392 41.8795C58.1907 41.6915 57.8587 42.2265 57.7432 43.4554C57.7432 46.1012 58.7392 47.1277 59.8941 47.1277C60.9479 47.1277 61.6553 46.2602 62.1894 45.465Z" fill="#2B57AE"/>
<path d="M60.27 49.2385C59.7503 49.8891 59.3461 50.4096 58.7109 51.2337C59.4183 51.4072 60.169 52 60.4432 52.347C60.9196 52.0289 61.6414 51.2192 61.6414 50.5831C61.6414 49.9325 60.9918 49.5132 60.27 49.2385Z" fill="#2B57AE"/>
<path d="M57.7432 43.4554C58.3206 43.3397 58.6526 42.8337 58.7392 41.8795C58.7392 39.8409 59.0713 37.5277 59.3167 35.4602C59.3889 34.9831 59.3311 34.7229 59.2012 34.665C58.9413 35.6915 58.7104 36.3132 58.3783 37.094C58.2917 37.2819 58.2484 37.5421 58.2051 37.8602C57.9886 39.7108 57.7432 41.5759 57.7432 43.4554Z" fill="#2B57AE"/>
<path d="M54.3798 45.4217C55.3181 44.453 56.2998 42.8771 56.2998 41.4747C56.2998 40.9253 56.1265 40.4048 55.4625 40.4048C54.3798 40.4048 53.2249 41.9229 52.6186 42.747C52.9218 41.8795 53.0806 40.8964 53.1383 40.3181C53.2827 38.6555 53.2105 36.241 53.759 34.7808C53.889 34.4048 53.9034 34.1446 53.8168 34.0579C53.4559 34.6795 53.095 35.3446 52.7774 35.9808C52.3732 36.7759 52.1855 37.5133 52.1855 38.4675C52.1855 39.7398 52.4165 42.8482 51.8246 43.8458C51.6658 44.1061 51.4782 44.3663 51.3194 44.6265C49.8614 44.3085 49.7314 43.0362 49.7314 41.8795L48.7354 43.4555C48.7354 45.0603 49.0096 47.1277 50.9007 47.1277C52.3155 47.1277 53.4703 46.3615 54.3798 45.4217ZM51.637 44.6699C52.7485 43.0217 53.5281 42.0241 54.4808 42.0241C55.0005 42.0241 55.3614 42.2699 55.578 42.6314C54.8417 44.0916 53.0517 44.9157 51.637 44.6699Z" fill="#2B57AE"/>
<path d="M48.7354 43.4554C49.3128 43.3397 49.6448 42.8337 49.7314 41.8795C49.7314 39.8409 50.0635 37.5277 50.3089 35.4602C50.381 34.9831 50.3233 34.7229 50.1934 34.665C49.9335 35.6915 49.7026 36.3132 49.3705 37.094C49.2839 37.2819 49.2406 37.5421 49.1973 37.8602C48.9808 39.7108 48.7354 41.5759 48.7354 43.4554Z" fill="#2B57AE"/>
<path d="M46.4407 43.5132C46.8738 42.8481 47.2202 41.6915 47.2924 40.8818C47.2058 40.8963 47.1192 41.012 47.0325 41.2577C46.6139 42.3855 44.7517 43.0939 43.6401 43.4409C41.1716 44.1927 37.6781 44.612 34.8342 44.612C33.9392 44.612 33.1163 44.5686 32.3946 44.4818C31.3263 44.3517 29.2187 43.9758 29.2764 42.5589C29.2908 42.3421 29.2475 42.2409 29.132 42.212C28.9877 42.877 28.8145 43.6722 28.8145 44.4095C28.8145 44.7276 28.8578 45.0457 28.9299 45.3204C29.4352 47.1565 32.2358 47.1276 33.766 47.1276C36.7253 47.1132 44.6795 46.2312 46.4407 43.5132Z" fill="#2B57AE"/>
<path d="M39.4825 36.5447C39.0061 37.123 38.5875 37.6579 38.0389 38.3519C37.8801 37.817 37.0573 37.4844 36.5953 37.2965C36.0612 37.9615 35.6137 38.5254 34.9785 39.3495C35.4982 39.4796 36.0756 39.8411 36.4077 40.1591C37.014 40.1591 37.9667 39.2772 38.0678 38.6555C38.5297 38.8146 39.0061 39.1182 39.2804 39.3929C39.93 39.3929 40.8106 38.4387 40.8106 37.7881C40.8106 37.1519 40.1321 36.7905 39.4825 36.5447Z" fill="#2B57AE"/>
<path d="M26.5191 44.0048C26.7645 43.1951 26.981 42.2554 27.1976 41.2433C27.2264 41.0698 27.2697 40.8963 27.3708 40.7373C27.0965 40.7373 26.9666 41.2144 26.9088 41.4457C26.8078 41.8072 26.7067 42.1831 26.5768 42.5301C25.855 44.6265 24.4114 46.1156 22.5492 47.3012C22.3471 47.4313 22.0439 47.6337 22.0439 47.865C22.5348 47.7204 23.502 47.2867 23.9495 47.2867C25.5086 47.2867 26.1293 45.2481 26.5191 44.0048Z" fill="#2B57AE"/>
<path d="M22.7802 36.0819C22.5781 36.4578 22.3182 36.906 22.0439 37.4409C21.6108 38.3373 21.3943 39.1614 21.3943 40.2457C21.4087 41.865 21.3943 45.7252 20.7158 47.1276C21.8418 46.5204 22.3615 43.8168 22.4626 42.6602C22.6358 40.7951 22.5492 37.7445 23.1555 36.0819C23.3143 35.6481 23.3287 35.3734 23.2132 35.2722C23.0689 35.5325 22.9245 35.8072 22.7802 36.0819Z" fill="#2B57AE"/>
<path d="M18.8965 44.3518C18.3624 45.1325 17.6983 45.7108 16.76 46.4048C16.4857 46.6072 16.1104 46.9108 16.1104 47.1277C16.9909 46.7373 17.6406 46.3903 18.0592 46.3903C18.3046 46.3903 18.5067 46.1879 18.6366 46C20.008 44.1928 20.8886 40.8675 18.2469 39.7397C17.8571 40.3614 17.323 41.3301 17.0198 42.0675C18.449 42.8048 18.882 43.5711 18.8965 44.3518Z" fill="#2B57AE"/>
<path d="M9.74414 47.8939C10.1772 47.677 11.3465 47.012 12.1838 46.9975C12.3282 46.9975 12.5736 46.9541 12.7757 46.7806C13.4397 46.2312 14.1182 44.93 14.3781 43.8601C15.4608 42.7758 15.9227 40.7373 15.966 38.7854C15.9804 38.4385 15.966 38.0915 15.966 37.7589C15.9516 37.3541 16.0093 36.8047 16.1104 36.3999C16.0526 36.3999 16.0093 36.4433 15.966 36.53C15.6195 37.2963 15.2587 37.918 14.8111 38.6409C14.6523 38.8866 14.609 39.1613 14.6523 39.4939C14.739 40.2023 14.8256 40.8818 14.8544 41.6047C14.7245 41.8505 14.5657 42.0963 14.3636 42.3276C14.2914 41.6192 14.0605 40.5638 13.151 40.5638C12.7757 40.5638 12.4292 40.7662 12.2127 41.1132C11.7507 42.1252 11.7363 42.1541 11.1877 43.1662C11.13 43.2674 11.1011 43.3686 11.1011 43.4842C11.1011 44.2216 11.7796 44.6553 12.4581 44.6553C12.7901 44.6553 13.1366 44.583 13.3964 44.4674C13.1654 45.4071 11.4187 46.4192 10.6392 46.9252C10.336 47.1421 9.80188 47.4746 9.74414 47.8939Z" fill="#2B57AE"/>
<path d="M15.5186 49.8604C15.0423 50.4387 14.6236 50.9736 14.0751 51.6676C13.9163 51.1326 13.0934 50.8001 12.6315 50.6122C12.0973 51.2772 11.6498 51.8411 11.0146 52.6652C11.5343 52.7953 12.1118 53.1567 12.4438 53.4748C13.0501 53.4748 14.0029 52.5929 14.1039 51.9712C14.5659 52.1302 15.0423 52.4338 15.3165 52.7085C15.9662 52.7085 16.8467 51.7543 16.8467 51.1037C16.8467 50.4676 16.1683 50.1061 15.5186 49.8604Z" fill="#2B57AE"/>
<path d="M2.95936 50.6266C6.13525 50.6266 9.0513 46.3037 9.0513 43.3253C9.0513 42.4434 8.74815 41.894 7.80982 41.2579C7.33343 40.9253 7.319 40.4916 7.5211 40C8.21402 38.3663 8.96469 37.1808 8.96469 35.3157C8.96469 34.029 8.63266 32.7856 7.56441 32.2073C7.42005 32.6844 7.18907 33.3784 6.90036 34.1157C6.81374 34.376 6.71269 34.5928 6.82818 34.6651C7.65102 35.2434 7.96861 35.9519 7.96861 36.7181C7.96861 38.6988 6.2363 40.6073 6.2363 42.3133C6.2363 43.2097 6.65495 43.9037 7.73764 44.4097C8.17071 44.5976 8.32951 45.0314 8.09853 45.4362C7.33343 46.8386 5.48564 48.0386 3.7389 48.0386C1.96328 48.0241 0.952769 46.8531 1.01051 45.0603C1.09713 42.9928 2.17982 41.2 3.07484 39.4073C3.2192 39.1326 3.30582 38.8 3.20477 38.5109C1.81892 40.8241 0 43.9904 0 46.8964C0 48.7615 0.822846 50.6266 2.95936 50.6266Z" fill="#2B57AE"/>
<path d="M7.79501 50.7856C7.31863 51.364 6.89999 51.8989 6.35142 52.5929C6.19263 52.0579 5.36978 51.7254 4.90784 51.5375C4.37371 52.2025 3.92619 52.7664 3.29102 53.5905C3.81071 53.7206 4.38814 54.082 4.72017 54.4001C5.32648 54.4001 6.27924 53.5182 6.3803 52.8965C6.84224 53.0555 7.31863 53.3591 7.59291 53.6338C8.24253 53.6338 9.12312 52.6796 9.12312 52.029C9.12312 51.3929 8.44463 51.0314 7.79501 50.7856Z" fill="#2B57AE"/>
</g>
<path d="M213.425 2.62035C217.217 1.65575 221.296 1.88858 225.088 2.81992C228.344 3.58495 231.492 4.88217 234.462 6.37896C235.356 6.8779 236.251 7.37683 237.217 7.8425C242.225 10.8028 246.912 14.2621 251.205 18.1205C253.388 20.083 255.606 22.0122 257.61 24.1409C251.205 24.1742 244.801 24.1742 238.397 24.2075C238.183 24.2075 237.932 24.2407 237.789 24.0411C237.038 23.2096 236.251 22.378 235.499 21.5132C233.818 19.8834 232.244 18.1205 230.491 16.5572C229.453 15.6591 228.487 14.7278 227.414 13.8962C224.48 11.6344 221.403 9.5056 217.933 8.07533C215.142 7.04421 212.101 6.37896 209.132 6.94442C205.554 7.44335 202.549 9.63865 200.295 12.2331C202.692 9.97127 205.84 8.27491 209.275 8.10859C213.282 7.90902 217.11 9.37255 220.509 11.2685C221.439 11.7342 222.226 12.3661 223.121 12.8983C225.697 14.5947 228.022 16.5572 230.276 18.6194C231.421 19.7836 232.673 20.848 233.782 22.0454C236.752 25.0723 239.506 28.2987 242.225 31.5251H242.154C241.546 31.5251 240.973 31.5251 240.401 31.5251C234.712 31.3588 229.06 31.2258 223.371 31.0595C222.978 31.126 222.87 30.7268 222.691 30.494C220.044 26.5358 217.182 22.6109 213.318 19.584C211.35 18.054 208.953 16.79 206.377 16.79C203.98 16.79 201.762 17.9874 200.08 19.5175C197.576 21.8126 195.751 24.7064 194.177 27.6335C193.497 28.9639 192.782 30.2944 192.209 31.6914C191.601 31.6582 190.993 31.6582 190.385 31.6249C191.959 26.1034 194.106 20.6817 197.147 15.6924C199.15 12.4659 201.547 9.43908 204.588 7.01094C207.128 4.98196 210.134 3.38537 213.425 2.62035Z" fill="#2B2A29"/>
<path d="M190.384 31.6249C190.992 31.6582 191.6 31.6582 192.209 31.6915C197.933 31.9243 203.693 31.9576 209.453 32.1904C209.918 32.6561 210.204 33.288 210.598 33.8202C212.852 37.0799 215.321 40.2731 218.362 42.9008C220.222 44.4308 222.369 45.8611 224.837 46.2935C227.02 46.6927 229.345 46.0274 231.098 44.7635C233.424 43.1336 235.177 40.8718 236.679 38.5767C238.075 36.2816 239.327 33.9533 240.4 31.5251C240.973 31.5251 241.545 31.5251 242.153 31.5251C240.901 35.9157 239.255 40.2066 237.144 44.2645C235.32 47.9566 232.959 51.3826 230.025 54.343C227.699 56.638 224.945 58.534 221.868 59.6982C219.399 60.696 216.716 61.1284 214.033 61.195C212.566 61.0952 211.063 61.0286 209.56 60.7958C206.126 60.1638 202.763 59.0329 199.614 57.5361C198.219 56.9707 196.967 56.1724 195.643 55.5071C190.134 52.2807 185.089 48.4223 180.438 44.1647C178.542 42.5682 176.789 40.8053 175 39.1089C181.547 39.0091 188.059 39.0424 194.57 38.9759C199.328 44.1315 204.265 49.2539 210.348 53.0125C212.101 54.0436 213.925 54.9417 215.857 55.6402C218.326 56.3719 220.938 56.8044 223.513 56.3387C227.127 55.74 230.239 53.5447 232.458 50.8172C230.74 52.314 228.808 53.711 226.59 54.4427C224.694 55.0415 222.619 55.241 220.651 54.9417C216.716 54.4427 213.102 52.6798 209.918 50.5178C208.165 49.4867 206.663 48.1895 205.088 46.9588C202.369 44.6304 199.829 42.1358 197.361 39.5746C194.928 37.0134 192.674 34.3192 190.384 31.6249Z" fill="#2B57AE"/>
<defs>
<clipPath id="clip0_249_5453">
<rect width="121.555" height="22" fill="white" transform="translate(45)"/>
</clipPath>
<clipPath id="clip1_249_5453">
<rect width="167.023" height="42" fill="white" transform="translate(0 22)"/>
</clipPath>
</defs>
</svg>
